  0
SECTION
  2
HEADER
  9
$ACADVER
  1
AC1018
  9
$ACADMAINTVER
 70
   104
  9
$DWGCODEPAGE
  3
ANSI_1252
  9
$LASTSAVEDBY
  1
Buddace
  9
$INSBASE
 10
0.0
 20
0.0
 30
0.0
  9
$EXTMIN
 10
8.652649999999999
 20
5.510249999999996
 30
0.0
  9
$EXTMAX
 10
66.77975
 20
30.63735
 30
0.0
  9
$LIMMIN
 10
0.0
 20
0.0
  9
$LIMMAX
 10
12.0
 20
9.0
  9
$ORTHOMODE
 70
     0
  9
$REGENMODE
 70
     1
  9
$FILLMODE
 70
     1
  9
$QTEXTMODE
 70
     0
  9
$MIRRTEXT
 70
     0
  9
$LTSCALE
 40
1.0
  9
$ATTMODE
 70
     1
  9
$TEXTSIZE
 40
0.2
  9
$TRACEWID
 40
0.05
  9
$TEXTSTYLE
  7
Standard
  9
$CLAYER
  8
0
  9
$CELTYPE
  6
CONTINUOUS
  9
$CECOLOR
 62
   256
  9
$CELTSCALE
 40
1.0
  9
$DISPSILH
 70
     0
  9
$DIMSCALE
 40
1.0
  9
$DIMASZ
 40
0.18
  9
$DIMEXO
 40
0.0625
  9
$DIMDLI
 40
0.38
  9
$DIMRND
 40
0.0
  9
$DIMDLE
 40
0.0
  9
$DIMEXE
 40
0.18
  9
$DIMTP
 40
0.0
  9
$DIMTM
 40
0.0
  9
$DIMTXT
 40
0.18
  9
$DIMCEN
 40
0.09
  9
$DIMTSZ
 40
0.0
  9
$DIMTOL
 70
     0
  9
$DIMLIM
 70
     0
  9
$DIMTIH
 70
     1
  9
$DIMTOH
 70
     1
  9
$DIMSE1
 70
     0
  9
$DIMSE2
 70
     0
  9
$DIMTAD
 70
     0
  9
$DIMZIN
 70
     0
  9
$DIMBLK
  1

  9
$DIMASO
 70
     1
  9
$DIMSHO
 70
     1
  9
$DIMPOST
  1

  9
$DIMAPOST
  1

  9
$DIMALT
 70
     0
  9
$DIMALTD
 70
     2
  9
$DIMALTF
 40
25.4
  9
$DIMLFAC
 40
1.0
  9
$DIMTOFL
 70
     0
  9
$DIMTVP
 40
0.0
  9
$DIMTIX
 70
     0
  9
$DIMSOXD
 70
     0
  9
$DIMSAH
 70
     0
  9
$DIMBLK1
  1

  9
$DIMBLK2
  1

  9
$DIMSTYLE
  2
Standard
  9
$DIMCLRD
 70
     0
  9
$DIMCLRE
 70
     0
  9
$DIMCLRT
 70
     0
  9
$DIMTFAC
 40
1.0
  9
$DIMGAP
 40
0.09
  9
$DIMJUST
 70
     0
  9
$DIMSD1
 70
     0
  9
$DIMSD2
 70
     0
  9
$DIMTOLJ
 70
     1
  9
$DIMTZIN
 70
     0
  9
$DIMALTZ
 70
     0
  9
$DIMALTTZ
 70
     0
  9
$DIMUPT
 70
     0
  9
$DIMDEC
 70
     4
  9
$DIMTDEC
 70
     4
  9
$DIMALTU
 70
     2
  9
$DIMALTTD
 70
     2
  9
$DIMTXSTY
  7
Standard
  9
$DIMAUNIT
 70
     0
  9
$DIMADEC
 70
     0
  9
$DIMALTRND
 40
0.0
  9
$DIMAZIN
 70
     0
  9
$DIMDSEP
 70
    46
  9
$DIMATFIT
 70
     3
  9
$DIMFRAC
 70
     0
  9
$DIMLDRBLK
  1

  9
$DIMLUNIT
 70
     2
  9
$DIMLWD
 70
    -2
  9
$DIMLWE
 70
    -2
  9
$DIMTMOVE
 70
     0
  9
$LUNITS
 70
     2
  9
$LUPREC
 70
     4
  9
$SKETCHINC
 40
0.1
  9
$FILLETRAD
 40
0.0
  9
$AUNITS
 70
     0
  9
$AUPREC
 70
     0
  9
$MENU
  1
.
  9
$ELEVATION
 40
0.0
  9
$PELEVATION
 40
0.0
  9
$THICKNESS
 40
0.0
  9
$LIMCHECK
 70
     0
  9
$CHAMFERA
 40
0.0
  9
$CHAMFERB
 40
0.0
  9
$CHAMFERC
 40
0.0
  9
$CHAMFERD
 40
0.0
  9
$SKPOLY
 70
     0
  9
$TDCREATE
 40
2458930.699920625
  9
$TDUCREATE
 40
2458930.658253958
  9
$TDUPDATE
 40
2458930.733979051
  9
$TDUUPDATE
 40
2458930.692312385
  9
$TDINDWG
 40
0.0068591204
  9
$TDUSRTIMER
 40
0.0068590046
  9
$USRTIMER
 70
     1
  9
$ANGBASE
 50
0.0
  9
$ANGDIR
 70
     0
  9
$PDMODE
 70
     0
  9
$PDSIZE
 40
0.0
  9
$PLINEWID
 40
0.0
  9
$SPLFRAME
 70
     0
  9
$SPLINETYPE
 70
     6
  9
$SPLINESEGS
 70
     8
  9
$HANDSEED
  5
797F
  9
$SURFTAB1
 70
     6
  9
$SURFTAB2
 70
     6
  9
$SURFTYPE
 70
     6
  9
$SURFU
 70
     6
  9
$SURFV
 70
     6
  9
$UCSBASE
  2

  9
$UCSNAME
  2

  9
$UCSORG
 10
0.0
 20
0.0
 30
0.0
  9
$UCSXDIR
 10
1.0
 20
0.0
 30
0.0
  9
$UCSYDIR
 10
0.0
 20
1.0
 30
0.0
  9
$UCSORTHOREF
  2

  9
$UCSORTHOVIEW
 70
     0
  9
$UCSORGTOP
 10
0.0
 20
0.0
 30
0.0
  9
$UCSORGBOTTOM
 10
0.0
 20
0.0
 30
0.0
  9
$UCSORGLEFT
 10
0.0
 20
0.0
 30
0.0
  9
$UCSORGRIGHT
 10
0.0
 20
0.0
 30
0.0
  9
$UCSORGFRONT
 10
0.0
 20
0.0
 30
0.0
  9
$UCSORGBACK
 10
0.0
 20
0.0
 30
0.0
  9
$PUCSBASE
  2

  9
$PUCSNAME
  2

  9
$PUCSORG
 10
0.0
 20
0.0
 30
0.0
  9
$PUCSXDIR
 10
1.0
 20
0.0
 30
0.0
  9
$PUCSYDIR
 10
0.0
 20
1.0
 30
0.0
  9
$PUCSORTHOREF
  2

  9
$PUCSORTHOVIEW
 70
     0
  9
$PUCSORGTOP
 10
0.0
 20
0.0
 30
0.0
  9
$PUCSORGBOTTOM
 10
0.0
 20
0.0
 30
0.0
  9
$PUCSORGLEFT
 10
0.0
 20
0.0
 30
0.0
  9
$PUCSORGRIGHT
 10
0.0
 20
0.0
 30
0.0
  9
$PUCSORGFRONT
 10
0.0
 20
0.0
 30
0.0
  9
$PUCSORGBACK
 10
0.0
 20
0.0
 30
0.0
  9
$USERI1
 70
     0
  9
$USERI2
 70
     0
  9
$USERI3
 70
     0
  9
$USERI4
 70
     0
  9
$USERI5
 70
     0
  9
$USERR1
 40
0.0
  9
$USERR2
 40
0.0
  9
$USERR3
 40
0.0
  9
$USERR4
 40
0.0
  9
$USERR5
 40
0.0
  9
$WORLDVIEW
 70
     1
  9
$SHADEDGE
 70
     3
  9
$SHADEDIF
 70
    70
  9
$TILEMODE
 70
     1
  9
$MAXACTVP
 70
    64
  9
$PINSBASE
 10
0.0
 20
0.0
 30
0.0
  9
$PLIMCHECK
 70
     0
  9
$PEXTMIN
 10
1.000000000000000E+20
 20
1.000000000000000E+20
 30
1.000000000000000E+20
  9
$PEXTMAX
 10
-1.000000000000000E+20
 20
-1.000000000000000E+20
 30
-1.000000000000000E+20
  9
$PLIMMIN
 10
0.0
 20
0.0
  9
$PLIMMAX
 10
12.0
 20
9.0
  9
$UNITMODE
 70
     0
  9
$VISRETAIN
 70
     1
  9
$PLINEGEN
 70
     0
  9
$PSLTSCALE
 70
     1
  9
$TREEDEPTH
 70
  3020
  9
$CMLSTYLE
  2
Standard
  9
$CMLJUST
 70
     0
  9
$CMLSCALE
 40
1.0
  9
$PROXYGRAPHICS
 70
     1
  9
$MEASUREMENT
 70
     0
  9
$CELWEIGHT
370
    -1
  9
$ENDCAPS
280
     0
  9
$JOINSTYLE
280
     0
  9
$LWDISPLAY
290
     0
  9
$INSUNITS
 70
     0
  9
$HYPERLINKBASE
  1

  9
$STYLESHEET
  1

  9
$XEDIT
290
     1
  9
$CEPSNTYPE
380
     0
  9
$PSTYLEMODE
290
     1
  9
$FINGERPRINTGUID
  2
{ACB7E9E2-4C5F-4D49-B6A3-D045D867BC56}
  9
$VERSIONGUID
  2
{D560DB60-EEDA-4E90-B89B-059EB8BD8652}
  9
$EXTNAMES
290
     1
  9
$PSVPSCALE
 40
0.0
  9
$OLESTARTUP
290
     0
  9
$SORTENTS
280
   127
  9
$INDEXCTL
280
     0
  9
$HIDETEXT
280
     0
  9
$XCLIPFRAME
290
     0
  9
$HALOGAP
280
     0
  9
$OBSCOLOR
 70
   257
  9
$OBSLTYPE
280
     0
  9
$INTERSECTIONDISPLAY
280
     0
  9
$INTERSECTIONCOLOR
 70
   257
  9
$DIMASSOC
280
     1
  9
$PROJECTNAME
  1

  0
ENDSEC
  0
SECTION
  2
CLASSES
  0
CLASS
  1
ACDBDICTIONARYWDFLT
  2
AcDbDictionaryWithDefault
  3
ObjectDBX Classes
 90
        0
 91
        1
280
     0
281
     0
  0
CLASS
  1
MATERIAL
  2
AcDbMaterial
  3
ObjectDBX Classes
 90
     1024
 91
        3
280
     0
281
     0
  0
CLASS
  1
VISUALSTYLE
  2
AcDbVisualStyle
  3
ObjectDBX Classes
 90
     4095
 91
       16
280
     0
281
     0
  0
CLASS
  1
TABLESTYLE
  2
AcDbTableStyle
  3
ObjectDBX Classes
 90
     4095
 91
        1
280
     0
281
     0
  0
CLASS
  1
DICTIONARYVAR
  2
AcDbDictionaryVar
  3
ObjectDBX Classes
 90
        0
 91
        3
280
     0
281
     0
  0
ENDSEC
  0
SECTION
  2
TABLES
  0
TABLE
  2
VPORT
  5
8
330
0
100
AcDbSymbolTable
 70
     1
  0
VPORT
  5
7D
330
8
100
AcDbSymbolTableRecord
100
AcDbViewportTableRecord
  2
*Active
 70
     0
 10
0.0
 20
0.0
 11
1.0
 21
1.0
 12
41.4175661130375
 22
16.81303146428144
 13
0.0
 23
0.0
 14
1.0
 24
1.0
 15
0.0
 25
0.0
 16
0.0
 26
0.0
 36
1.0
 17
0.0
 27
0.0
 37
0.0
 40
45.415207093648
 41
1.677650429799427
 42
50.0
 43
0.0
 44
0.0
 50
0.0
 51
0.0
 71
     0
 72
   100
 73
     1
 74
     1
 75
     0
 76
     0
 77
     0
 78
     0
281
     0
 65
     1
110
0.0
120
0.0
130
0.0
111
1.0
121
0.0
131
0.0
112
0.0
122
1.0
132
0.0
 79
     0
146
0.0
  0
ENDTAB
  0
TABLE
  2
LTYPE
  5
5
330
0
100
AcDbSymbolTable
 70
     2
  0
LTYPE
  5
28
330
5
100
AcDbSymbolTableRecord
100
AcDbLinetypeTableRecord
  2
ByBlock
 70
     0
  3

 72
    65
 73
     0
 40
0.0
  0
LTYPE
  5
29
330
5
100
AcDbSymbolTableRecord
100
AcDbLinetypeTableRecord
  2
ByLayer
 70
     0
  3

 72
    65
 73
     0
 40
0.0
  0
LTYPE
  5
2A
330
5
100
AcDbSymbolTableRecord
100
AcDbLinetypeTableRecord
  2
CONTINUOUS
 70
     0
  3
Solid line
 72
    65
 73
     0
 40
0.0
  0
ENDTAB
  0
TABLE
  2
LAYER
  5
2
330
0
100
AcDbSymbolTable
 70
    67
  0
LAYER
  5
25
330
2
100
AcDbSymbolTableRecord
100
AcDbLayerTableRecord
  2
0
 70
     0
 62
     7
  6
CONTINUOUS
370
    -3
390
F
  0
LAYER
  5
3A
330
2
100
AcDbSymbolTableRecord
100
AcDbLayerTableRecord
  2
1
 70
     0
 62
    22
  6
CONTINUOUS
370
    -3
390
F
  0
LAYER
  5
3B
330
2
100
AcDbSymbolTableRecord
100
AcDbLayerTableRecord
  2
16
 70
     0
 62
   175
  6
CONTINUOUS
370
    -3
390
F
  0
LAYER
  5
3C
330
2
100
AcDbSymbolTableRecord
100
AcDbLayerTableRecord
  2
17
 70
     0
 62
    82
  6
CONTINUOUS
370
    -3
390
F
  0
LAYER
  5
3D
330
2
100
AcDbSymbolTableRecord
100
AcDbLayerTableRecord
  2
18
 70
     0
 62
    82
  6
CONTINUOUS
370
    -3
390
F
  0
LAYER
  5
3E
330
2
100
AcDbSymbolTableRecord
100
AcDbLayerTableRecord
  2
19
 70
     0
 62
    53
  6
CONTINUOUS
370
    -3
390
F
  0
LAYER
  5
3F
330
2
100
AcDbSymbolTableRecord
100
AcDbLayerTableRecord
  2
20
 70
     0
 62
     7
  6
CONTINUOUS
370
    -3
390
F
  0
LAYER
  5
40
330
2
100
AcDbSymbolTableRecord
100
AcDbLayerTableRecord
  2
21
 70
     0
 62
   253
  6
CONTINUOUS
370
    -3
390
F
  0
LAYER
  5
41
330
2
100
AcDbSymbolTableRecord
100
AcDbLayerTableRecord
  2
22
 70
     0
 62
   253
  6
CONTINUOUS
370
    -3
390
F
  0
LAYER
  5
42
330
2
100
AcDbSymbolTableRecord
100
AcDbLayerTableRecord
  2
23
 70
     0
 62
     7
  6
CONTINUOUS
370
    -3
390
F
  0
LAYER
  5
43
330
2
100
AcDbSymbolTableRecord
100
AcDbLayerTableRecord
  2
24
 70
     0
 62
     7
  6
CONTINUOUS
370
    -3
390
F
  0
LAYER
  5
44
330
2
100
AcDbSymbolTableRecord
100
AcDbLayerTableRecord
  2
25
 70
     0
 62
   253
  6
CONTINUOUS
370
    -3
390
F
  0
LAYER
  5
45
330
2
100
AcDbSymbolTableRecord
100
AcDbLayerTableRecord
  2
26
 70
     0
 62
   253
  6
CONTINUOUS
370
    -3
390
F
  0
LAYER
  5
46
330
2
100
AcDbSymbolTableRecord
100
AcDbLayerTableRecord
  2
27
 70
     0
 62
   253
  6
CONTINUOUS
370
    -3
390
F
  0
LAYER
  5
47
330
2
100
AcDbSymbolTableRecord
100
AcDbLayerTableRecord
  2
28
 70
     0
 62
   253
  6
CONTINUOUS
370
    -3
390
F
  0
LAYER
  5
48
330
2
100
AcDbSymbolTableRecord
100
AcDbLayerTableRecord
  2
37
 70
     0
 62
   253
  6
CONTINUOUS
370
    -3
390
F
  0
LAYER
  5
49
330
2
100
AcDbSymbolTableRecord
100
AcDbLayerTableRecord
  2
38
 70
     0
 62
   253
  6
CONTINUOUS
370
    -3
390
F
  0
LAYER
  5
4A
330
2
100
AcDbSymbolTableRecord
100
AcDbLayerTableRecord
  2
39
 70
     0
 62
    22
  6
CONTINUOUS
370
    -3
390
F
  0
LAYER
  5
4B
330
2
100
AcDbSymbolTableRecord
100
AcDbLayerTableRecord
  2
40
 70
     0
 62
   175
  6
CONTINUOUS
370
    -3
390
F
  0
LAYER
  5
4C
330
2
100
AcDbSymbolTableRecord
100
AcDbLayerTableRecord
  2
41
 70
     0
 62
    22
  6
CONTINUOUS
370
    -3
390
F
  0
LAYER
  5
4D
330
2
100
AcDbSymbolTableRecord
100
AcDbLayerTableRecord
  2
42
 70
     0
 62
   175
  6
CONTINUOUS
370
    -3
390
F
  0
LAYER
  5
4E
330
2
100
AcDbSymbolTableRecord
100
AcDbLayerTableRecord
  2
43
 70
     0
 62
    82
  6
CONTINUOUS
370
    -3
390
F
  0
LAYER
  5
4F
330
2
100
AcDbSymbolTableRecord
100
AcDbLayerTableRecord
  2
47
 70
     0
 62
   253
  6
CONTINUOUS
370
    -3
390
F
  0
LAYER
  5
50
330
2
100
AcDbSymbolTableRecord
100
AcDbLayerTableRecord
  2
48
 70
     0
 62
   253
  6
CONTINUOUS
370
    -3
390
F
  0
LAYER
  5
51
330
2
100
AcDbSymbolTableRecord
100
AcDbLayerTableRecord
  2
49
 70
     0
 62
   253
  6
CONTINUOUS
370
    -3
390
F
  0
LAYER
  5
52
330
2
100
AcDbSymbolTableRecord
100
AcDbLayerTableRecord
  2
50
 70
     0
 62
   253
  6
CONTINUOUS
370
    -3
390
F
  0
LAYER
  5
53
330
2
100
AcDbSymbolTableRecord
100
AcDbLayerTableRecord
  2
51
 70
     0
 62
   253
  6
CONTINUOUS
370
    -3
390
F
  0
LAYER
  5
54
330
2
100
AcDbSymbolTableRecord
100
AcDbLayerTableRecord
  2
52
 70
     0
 62
   253
  6
CONTINUOUS
370
    -3
390
F
  0
LAYER
  5
55
330
2
100
AcDbSymbolTableRecord
100
AcDbLayerTableRecord
  2
56
 70
     0
 62
   253
  6
CONTINUOUS
370
    -3
390
F
  0
LAYER
  5
56
330
2
100
AcDbSymbolTableRecord
100
AcDbLayerTableRecord
  2
100
 70
     0
 62
   253
  6
CONTINUOUS
370
    -3
390
F
  0
LAYER
  5
57
330
2
100
AcDbSymbolTableRecord
100
AcDbLayerTableRecord
  2
101
 70
     0
 62
   253
  6
CONTINUOUS
370
    -3
390
F
  0
LAYER
  5
58
330
2
100
AcDbSymbolTableRecord
100
AcDbLayerTableRecord
  2
102
 70
     0
 62
   253
  6
CONTINUOUS
370
    -3
390
F
  0
LAYER
  5
59
330
2
100
AcDbSymbolTableRecord
100
AcDbLayerTableRecord
  2
104
 70
     0
 62
   253
  6
CONTINUOUS
370
    -3
390
F
  0
LAYER
  5
5A
330
2
100
AcDbSymbolTableRecord
100
AcDbLayerTableRecord
  2
116
 70
     0
 62
     5
  6
CONTINUOUS
370
    -3
390
F
  0
LAYER
  5
5B
330
2
100
AcDbSymbolTableRecord
100
AcDbLayerTableRecord
  2
118
 70
     0
 62
     5
  6
CONTINUOUS
370
    -3
390
F
  0
LAYER
  5
5C
330
2
100
AcDbSymbolTableRecord
100
AcDbLayerTableRecord
  2
151
 70
     0
 62
   253
  6
CONTINUOUS
370
    -3
390
F
  0
LAYER
  5
5D
330
2
100
AcDbSymbolTableRecord
100
AcDbLayerTableRecord
  2
200
 70
     0
 62
   175
  6
CONTINUOUS
370
    -3
390
F
  0
LAYER
  5
5E
330
2
100
AcDbSymbolTableRecord
100
AcDbLayerTableRecord
  2
201
 70
     0
 62
    82
  6
CONTINUOUS
370
    -3
390
F
  0
LAYER
  5
5F
330
2
100
AcDbSymbolTableRecord
100
AcDbLayerTableRecord
  2
202
 70
     0
 62
   140
  6
CONTINUOUS
370
    -3
390
F
  0
LAYER
  5
60
330
2
100
AcDbSymbolTableRecord
100
AcDbLayerTableRecord
  2
203
 70
     0
 62
    22
  6
CONTINUOUS
370
    -3
390
F
  0
LAYER
  5
61
330
2
100
AcDbSymbolTableRecord
100
AcDbLayerTableRecord
  2
204
 70
     0
 62
   213
  6
CONTINUOUS
370
    -3
390
F
  0
LAYER
  5
62
330
2
100
AcDbSymbolTableRecord
100
AcDbLayerTableRecord
  2
205
 70
     0
 62
     1
  6
CONTINUOUS
370
    -3
390
F
  0
LAYER
  5
63
330
2
100
AcDbSymbolTableRecord
100
AcDbLayerTableRecord
  2
206
 70
     0
 62
   253
  6
CONTINUOUS
370
    -3
390
F
  0
LAYER
  5
64
330
2
100
AcDbSymbolTableRecord
100
AcDbLayerTableRecord
  2
207
 70
     0
 62
   250
  6
CONTINUOUS
370
    -3
390
F
  0
LAYER
  5
65
330
2
100
AcDbSymbolTableRecord
100
AcDbLayerTableRecord
  2
208
 70
     0
 62
   253
  6
CONTINUOUS
370
    -3
390
F
  0
LAYER
  5
66
330
2
100
AcDbSymbolTableRecord
100
AcDbLayerTableRecord
  2
209
 70
     0
 62
   253
  6
CONTINUOUS
370
    -3
390
F
  0
LAYER
  5
67
330
2
100
AcDbSymbolTableRecord
100
AcDbLayerTableRecord
  2
210
 70
     0
 62
   253
  6
CONTINUOUS
370
    -3
390
F
  0
LAYER
  5
68
330
2
100
AcDbSymbolTableRecord
100
AcDbLayerTableRecord
  2
211
 70
     0
 62
   253
  6
CONTINUOUS
370
    -3
390
F
  0
LAYER
  5
69
330
2
100
AcDbSymbolTableRecord
100
AcDbLayerTableRecord
  2
212
 70
     0
 62
   253
  6
CONTINUOUS
370
    -3
390
F
  0
LAYER
  5
6A
330
2
100
AcDbSymbolTableRecord
100
AcDbLayerTableRecord
  2
213
 70
     0
 62
   253
  6
CONTINUOUS
370
    -3
390
F
  0
LAYER
  5
6B
330
2
100
AcDbSymbolTableRecord
100
AcDbLayerTableRecord
  2
214
 70
     0
 62
   253
  6
CONTINUOUS
370
    -3
390
F
  0
LAYER
  5
6C
330
2
100
AcDbSymbolTableRecord
100
AcDbLayerTableRecord
  2
215
 70
     0
 62
   253
  6
CONTINUOUS
370
    -3
390
F
  0
LAYER
  5
6D
330
2
100
AcDbSymbolTableRecord
100
AcDbLayerTableRecord
  2
216
 70
     0
 62
   253
  6
CONTINUOUS
370
    -3
390
F
  0
LAYER
  5
6E
330
2
100
AcDbSymbolTableRecord
100
AcDbLayerTableRecord
  2
217
 70
     0
 62
   253
  6
CONTINUOUS
370
    -3
390
F
  0
LAYER
  5
6F
330
2
100
AcDbSymbolTableRecord
100
AcDbLayerTableRecord
  2
218
 70
     0
 62
   253
  6
CONTINUOUS
370
    -3
390
F
  0
LAYER
  5
70
330
2
100
AcDbSymbolTableRecord
100
AcDbLayerTableRecord
  2
219
 70
     0
 62
   253
  6
CONTINUOUS
370
    -3
390
F
  0
LAYER
  5
71
330
2
100
AcDbSymbolTableRecord
100
AcDbLayerTableRecord
  2
220
 70
     0
 62
   253
  6
CONTINUOUS
370
    -3
390
F
  0
LAYER
  5
72
330
2
100
AcDbSymbolTableRecord
100
AcDbLayerTableRecord
  2
221
 70
     0
 62
   253
  6
CONTINUOUS
370
    -3
390
F
  0
LAYER
  5
73
330
2
100
AcDbSymbolTableRecord
100
AcDbLayerTableRecord
  2
222
 70
     0
 62
   253
  6
CONTINUOUS
370
    -3
390
F
  0
LAYER
  5
74
330
2
100
AcDbSymbolTableRecord
100
AcDbLayerTableRecord
  2
223
 70
     0
 62
   253
  6
CONTINUOUS
370
    -3
390
F
  0
LAYER
  5
75
330
2
100
AcDbSymbolTableRecord
100
AcDbLayerTableRecord
  2
224
 70
     0
 62
   253
  6
CONTINUOUS
370
    -3
390
F
  0
LAYER
  5
76
330
2
100
AcDbSymbolTableRecord
100
AcDbLayerTableRecord
  2
225
 70
     0
 62
   253
  6
CONTINUOUS
370
    -3
390
F
  0
LAYER
  5
77
330
2
100
AcDbSymbolTableRecord
100
AcDbLayerTableRecord
  2
226
 70
     0
 62
   253
  6
CONTINUOUS
370
    -3
390
F
  0
LAYER
  5
78
330
2
100
AcDbSymbolTableRecord
100
AcDbLayerTableRecord
  2
250
 70
     0
 62
   253
  6
CONTINUOUS
370
    -3
390
F
  0
LAYER
  5
79
330
2
100
AcDbSymbolTableRecord
100
AcDbLayerTableRecord
  2
251
 70
     0
 62
   253
  6
CONTINUOUS
370
    -3
390
F
  0
LAYER
  5
7A
330
2
100
AcDbSymbolTableRecord
100
AcDbLayerTableRecord
  2
254
 70
     0
 62
   253
  6
CONTINUOUS
370
    -3
390
F
  0
LAYER
  5
7B
330
2
100
AcDbSymbolTableRecord
100
AcDbLayerTableRecord
  2
255
 70
     0
 62
   253
  6
CONTINUOUS
370
    -3
390
F
  0
ENDTAB
  0
TABLE
  2
STYLE
  5
3
330
0
100
AcDbSymbolTable
 70
     1
  0
STYLE
  5
26
330
3
100
AcDbSymbolTableRecord
100
AcDbTextStyleTableRecord
  2
Standard
 70
     0
 40
0.0
 41
1.0
 50
0.0
 71
     0
 42
0.2
  3
txt
  4

  0
ENDTAB
  0
TABLE
  2
VIEW
  5
6
330
0
100
AcDbSymbolTable
 70
     0
  0
ENDTAB
  0
TABLE
  2
UCS
  5
7
330
0
100
AcDbSymbolTable
 70
     0
  0
ENDTAB
  0
TABLE
  2
APPID
  5
9
330
0
100
AcDbSymbolTable
 70
     1
  0
APPID
  5
27
330
9
100
AcDbSymbolTableRecord
100
AcDbRegAppTableRecord
  2
ACAD
 70
     0
  0
ENDTAB
  0
TABLE
  2
DIMSTYLE
  5
A
330
0
100
AcDbSymbolTable
 70
     2
100
AcDbDimStyleTable
 71
     1
340
7961
  0
DIMSTYLE
105
7961
330
A
100
AcDbSymbolTableRecord
100
AcDbDimStyleTableRecord
  2
Standard
 70
     0
340
26
  0
ENDTAB
  0
TABLE
  2
BLOCK_RECORD
  5
1
330
0
100
AcDbSymbolTable
 70
    14
  0
BLOCK_RECORD
  5
36
330
1
100
AcDbSymbolTableRecord
100
AcDbBlockTableRecord
  2
*Model_Space
340
39
  0
BLOCK_RECORD
  5
32
330
1
100
AcDbSymbolTableRecord
100
AcDbBlockTableRecord
  2
*Paper_Space
340
35
  0
BLOCK_RECORD
  5
7E
330
1
100
AcDbSymbolTableRecord
100
AcDbBlockTableRecord
  2
RECT
340
0
  0
BLOCK_RECORD
  5
82
330
1
100
AcDbSymbolTableRecord
100
AcDbBlockTableRecord
  2
PIE
340
0
  0
BLOCK_RECORD
  5
8A
330
1
100
AcDbSymbolTableRecord
100
AcDbBlockTableRecord
  2
OCTAGONP
340
0
  0
BLOCK_RECORD
  5
99
330
1
100
AcDbSymbolTableRecord
100
AcDbBlockTableRecord
  2
SQUAREP
340
0
  0
BLOCK_RECORD
  5
9D
330
1
100
AcDbSymbolTableRecord
100
AcDbBlockTableRecord
  2
ROUNDP
340
0
  0
BLOCK_RECORD
  5
A5
330
1
100
AcDbSymbolTableRecord
100
AcDbBlockTableRecord
  2
ANNULUSP
340
0
  0
BLOCK_RECORD
  5
AD
330
1
100
AcDbSymbolTableRecord
100
AcDbBlockTableRecord
  2
THERMALP
340
0
  0
BLOCK_RECORD
  5
E0
330
1
100
AcDbSymbolTableRecord
100
AcDbBlockTableRecord
  2
OCTAGONV
340
0
  0
BLOCK_RECORD
  5
EF
330
1
100
AcDbSymbolTableRecord
100
AcDbBlockTableRecord
  2
SQUAREV
340
0
  0
BLOCK_RECORD
  5
F3
330
1
100
AcDbSymbolTableRecord
100
AcDbBlockTableRecord
  2
ROUNDV
340
0
  0
BLOCK_RECORD
  5
FB
330
1
100
AcDbSymbolTableRecord
100
AcDbBlockTableRecord
  2
ANNULUSV
340
0
  0
BLOCK_RECORD
  5
103
330
1
100
AcDbSymbolTableRecord
100
AcDbBlockTableRecord
  2
THERMALV
340
0
  0
BLOCK_RECORD
  5
136
330
1
100
AcDbSymbolTableRecord
100
AcDbBlockTableRecord
  2
LONGP100
340
0
  0
ENDTAB
  0
ENDSEC
  0
SECTION
  2
BLOCKS
  0
BLOCK
  5
37
330
36
100
AcDbEntity
  8
0
100
AcDbBlockBegin
  2
*Model_Space
 70
     0
 10
0.0
 20
0.0
 30
0.0
  3
*Model_Space
  1

  0
ENDBLK
  5
38
330
36
100
AcDbEntity
  8
0
100
AcDbBlockEnd
  0
BLOCK
  5
33
330
32
100
AcDbEntity
 67
     1
  8
0
100
AcDbBlockBegin
  2
*Paper_Space
 70
     0
 10
0.0
 20
0.0
 30
0.0
  3
*Paper_Space
  1

  0
ENDBLK
  5
34
330
32
100
AcDbEntity
 67
     1
  8
0
100
AcDbBlockEnd
  0
BLOCK
  5
7F
330
7E
100
AcDbEntity
  8
0
100
AcDbBlockBegin
  2
RECT
 70
     0
 10
0.0
 20
0.0
 30
0.0
  3
RECT
  1

  0
SOLID
  5
80
330
7E
100
AcDbEntity
  8
0
100
AcDbTrace
 10
-0.5
 20
-0.5
 30
0.0
 11
0.5
 21
-0.5
 31
0.0
 12
-0.5
 22
0.5
 32
0.0
 13
0.5
 23
0.5
 33
0.0
  0
ENDBLK
  5
81
330
7E
100
AcDbEntity
  8
0
100
AcDbBlockEnd
  0
BLOCK
  5
83
330
82
100
AcDbEntity
  8
0
100
AcDbBlockBegin
  2
PIE
 70
     0
 10
0.0
 20
0.0
 30
0.0
  3
PIE
  1

  0
LWPOLYLINE
  5
84
330
82
100
AcDbEntity
  8
0
100
AcDbPolyline
 90
        3
 70
     0
 43
0.5
 10
0.0
 20
-0.25
 42
1.0
 10
0.0
 20
0.25
 42
1.0
 10
0.0
 20
-0.25
  0
ENDBLK
  5
89
330
82
100
AcDbEntity
  8
0
100
AcDbBlockEnd
  0
BLOCK
  5
8B
330
8A
100
AcDbEntity
  8
0
100
AcDbBlockBegin
  2
OCTAGONP
 70
     0
 10
0.0
 20
0.0
 30
0.0
  3
OCTAGONP
  1

  0
LWPOLYLINE
  5
8C
330
8A
100
AcDbEntity
  8
0
100
AcDbPolyline
 90
       10
 70
     0
 43
0.5
 10
-0.25
 20
-0.1036
 10
-0.25
 20
0.1036
 10
-0.1036
 20
0.25
 10
0.1036
 20
0.25
 10
0.25
 20
0.1036
 10
0.25
 20
-0.1036
 10
0.1036
 20
-0.25
 10
-0.1036
 20
-0.25
 10
-0.25
 20
-0.1036
 10
-0.25
 20
0.1036
  0
ENDBLK
  5
98
330
8A
100
AcDbEntity
  8
0
100
AcDbBlockEnd
  0
BLOCK
  5
9A
330
99
100
AcDbEntity
  8
0
100
AcDbBlockBegin
  2
SQUAREP
 70
     0
 10
0.0
 20
0.0
 30
0.0
  3
SQUAREP
  1

  0
SOLID
  5
9B
330
99
100
AcDbEntity
  8
0
100
AcDbTrace
 10
-0.5
 20
-0.5
 30
0.0
 11
0.5
 21
-0.5
 31
0.0
 12
-0.5
 22
0.5
 32
0.0
 13
0.5
 23
0.5
 33
0.0
  0
ENDBLK
  5
9C
330
99
100
AcDbEntity
  8
0
100
AcDbBlockEnd
  0
BLOCK
  5
9E
330
9D
100
AcDbEntity
  8
0
100
AcDbBlockBegin
  2
ROUNDP
 70
     0
 10
0.0
 20
0.0
 30
0.0
  3
ROUNDP
  1

  0
LWPOLYLINE
  5
9F
330
9D
100
AcDbEntity
  8
0
100
AcDbPolyline
 90
        3
 70
     0
 43
0.5
 10
0.0
 20
-0.25
 42
1.0
 10
0.0
 20
0.25
 42
1.0
 10
0.0
 20
-0.25
  0
ENDBLK
  5
A4
330
9D
100
AcDbEntity
  8
0
100
AcDbBlockEnd
  0
BLOCK
  5
A6
330
A5
100
AcDbEntity
  8
0
100
AcDbBlockBegin
  2
ANNULUSP
 70
     0
 10
0.0
 20
0.0
 30
0.0
  3
ANNULUSP
  1

  0
LWPOLYLINE
  5
A7
330
A5
100
AcDbEntity
  8
0
100
AcDbPolyline
 90
        3
 70
     0
 43
0.5
 10
0.0
 20
-0.25
 42
1.0
 10
0.0
 20
0.25
 42
1.0
 10
0.0
 20
-0.25
  0
ENDBLK
  5
AC
330
A5
100
AcDbEntity
  8
0
100
AcDbBlockEnd
  0
BLOCK
  5
AE
330
AD
100
AcDbEntity
  8
0
100
AcDbBlockBegin
  2
THERMALP
 70
     0
 10
0.0
 20
0.0
 30
0.0
  3
THERMALP
  1

  0
LWPOLYLINE
  5
AF
330
AD
100
AcDbEntity
  8
0
100
AcDbPolyline
 90
        2
 70
     0
 43
0.1
 10
-0.2379
 20
0.45
 10
0.2379
 20
0.45
  0
LWPOLYLINE
  5
B3
330
AD
100
AcDbEntity
  8
0
100
AcDbPolyline
 90
        2
 70
     0
 43
0.05
 10
0.2379
 20
0.425
 42
1.0
 10
0.2379
 20
0.475
  0
LWPOLYLINE
  5
B7
330
AD
100
AcDbEntity
  8
0
100
AcDbPolyline
 90
        2
 70
     0
 43
0.05
 10
-0.2379
 20
0.475
 42
1.0
 10
-0.2379
 20
0.425
  0
LWPOLYLINE
  5
BB
330
AD
100
AcDbEntity
  8
0
100
AcDbPolyline
 90
        2
 70
     0
 43
0.1
 10
0.45
 20
0.2379
 10
0.45
 20
-0.2379
  0
LWPOLYLINE
  5
BF
330
AD
100
AcDbEntity
  8
0
100
AcDbPolyline
 90
        2
 70
     0
 43
0.05
 10
0.425
 20
-0.2379
 42
1.0
 10
0.475
 20
-0.2379
  0
LWPOLYLINE
  5
C3
330
AD
100
AcDbEntity
  8
0
100
AcDbPolyline
 90
        2
 70
     0
 43
0.05
 10
0.475
 20
0.2379
 42
1.0
 10
0.425
 20
0.2379
  0
LWPOLYLINE
  5
C7
330
AD
100
AcDbEntity
  8
0
100
AcDbPolyline
 90
        2
 70
     0
 43
0.1
 10
0.2379
 20
-0.45
 10
-0.2379
 20
-0.45
  0
LWPOLYLINE
  5
CB
330
AD
100
AcDbEntity
  8
0
100
AcDbPolyline
 90
        2
 70
     0
 43
0.05
 10
-0.2379
 20
-0.425
 42
1.0
 10
-0.2379
 20
-0.475
  0
LWPOLYLINE
  5
CF
330
AD
100
AcDbEntity
  8
0
100
AcDbPolyline
 90
        2
 70
     0
 43
0.05
 10
0.2379
 20
-0.475
 42
1.0
 10
0.2379
 20
-0.425
  0
LWPOLYLINE
  5
D3
330
AD
100
AcDbEntity
  8
0
100
AcDbPolyline
 90
        2
 70
     0
 43
0.1
 10
-0.45
 20
-0.2379
 10
-0.45
 20
0.2379
  0
LWPOLYLINE
  5
D7
330
AD
100
AcDbEntity
  8
0
100
AcDbPolyline
 90
        2
 70
     0
 43
0.05
 10
-0.425
 20
0.2379
 42
1.0
 10
-0.475
 20
0.2379
  0
LWPOLYLINE
  5
DB
330
AD
100
AcDbEntity
  8
0
100
AcDbPolyline
 90
        2
 70
     0
 43
0.05
 10
-0.475
 20
-0.2379
 42
1.0
 10
-0.425
 20
-0.2379
  0
ENDBLK
  5
DF
330
AD
100
AcDbEntity
  8
0
100
AcDbBlockEnd
  0
BLOCK
  5
E1
330
E0
100
AcDbEntity
  8
0
100
AcDbBlockBegin
  2
OCTAGONV
 70
     0
 10
0.0
 20
0.0
 30
0.0
  3
OCTAGONV
  1

  0
LWPOLYLINE
  5
E2
330
E0
100
AcDbEntity
  8
0
100
AcDbPolyline
 90
       10
 70
     0
 43
0.5
 10
-0.25
 20
-0.1036
 10
-0.25
 20
0.1036
 10
-0.1036
 20
0.25
 10
0.1036
 20
0.25
 10
0.25
 20
0.1036
 10
0.25
 20
-0.1036
 10
0.1036
 20
-0.25
 10
-0.1036
 20
-0.25
 10
-0.25
 20
-0.1036
 10
-0.25
 20
0.1036
  0
ENDBLK
  5
EE
330
E0
100
AcDbEntity
  8
0
100
AcDbBlockEnd
  0
BLOCK
  5
F0
330
EF
100
AcDbEntity
  8
0
100
AcDbBlockBegin
  2
SQUAREV
 70
     0
 10
0.0
 20
0.0
 30
0.0
  3
SQUAREV
  1

  0
SOLID
  5
F1
330
EF
100
AcDbEntity
  8
0
100
AcDbTrace
 10
-0.5
 20
-0.5
 30
0.0
 11
0.5
 21
-0.5
 31
0.0
 12
-0.5
 22
0.5
 32
0.0
 13
0.5
 23
0.5
 33
0.0
  0
ENDBLK
  5
F2
330
EF
100
AcDbEntity
  8
0
100
AcDbBlockEnd
  0
BLOCK
  5
F4
330
F3
100
AcDbEntity
  8
0
100
AcDbBlockBegin
  2
ROUNDV
 70
     0
 10
0.0
 20
0.0
 30
0.0
  3
ROUNDV
  1

  0
LWPOLYLINE
  5
F5
330
F3
100
AcDbEntity
  8
0
100
AcDbPolyline
 90
        3
 70
     0
 43
0.5
 10
0.0
 20
-0.25
 42
1.0
 10
0.0
 20
0.25
 42
1.0
 10
0.0
 20
-0.25
  0
ENDBLK
  5
FA
330
F3
100
AcDbEntity
  8
0
100
AcDbBlockEnd
  0
BLOCK
  5
FC
330
FB
100
AcDbEntity
  8
0
100
AcDbBlockBegin
  2
ANNULUSV
 70
     0
 10
0.0
 20
0.0
 30
0.0
  3
ANNULUSV
  1

  0
LWPOLYLINE
  5
FD
330
FB
100
AcDbEntity
  8
0
100
AcDbPolyline
 90
        3
 70
     0
 43
0.5
 10
0.0
 20
-0.25
 42
1.0
 10
0.0
 20
0.25
 42
1.0
 10
0.0
 20
-0.25
  0
ENDBLK
  5
102
330
FB
100
AcDbEntity
  8
0
100
AcDbBlockEnd
  0
BLOCK
  5
104
330
103
100
AcDbEntity
  8
0
100
AcDbBlockBegin
  2
THERMALV
 70
     0
 10
0.0
 20
0.0
 30
0.0
  3
THERMALV
  1

  0
LWPOLYLINE
  5
105
330
103
100
AcDbEntity
  8
0
100
AcDbPolyline
 90
        2
 70
     0
 43
0.1
 10
-0.2379
 20
0.45
 10
0.2379
 20
0.45
  0
LWPOLYLINE
  5
109
330
103
100
AcDbEntity
  8
0
100
AcDbPolyline
 90
        2
 70
     0
 43
0.05
 10
0.2379
 20
0.425
 42
1.0
 10
0.2379
 20
0.475
  0
LWPOLYLINE
  5
10D
330
103
100
AcDbEntity
  8
0
100
AcDbPolyline
 90
        2
 70
     0
 43
0.05
 10
-0.2379
 20
0.475
 42
1.0
 10
-0.2379
 20
0.425
  0
LWPOLYLINE
  5
111
330
103
100
AcDbEntity
  8
0
100
AcDbPolyline
 90
        2
 70
     0
 43
0.1
 10
0.45
 20
0.2379
 10
0.45
 20
-0.2379
  0
LWPOLYLINE
  5
115
330
103
100
AcDbEntity
  8
0
100
AcDbPolyline
 90
        2
 70
     0
 43
0.05
 10
0.425
 20
-0.2379
 42
1.0
 10
0.475
 20
-0.2379
  0
LWPOLYLINE
  5
119
330
103
100
AcDbEntity
  8
0
100
AcDbPolyline
 90
        2
 70
     0
 43
0.05
 10
0.475
 20
0.2379
 42
1.0
 10
0.425
 20
0.2379
  0
LWPOLYLINE
  5
11D
330
103
100
AcDbEntity
  8
0
100
AcDbPolyline
 90
        2
 70
     0
 43
0.1
 10
0.2379
 20
-0.45
 10
-0.2379
 20
-0.45
  0
LWPOLYLINE
  5
121
330
103
100
AcDbEntity
  8
0
100
AcDbPolyline
 90
        2
 70
     0
 43
0.05
 10
-0.2379
 20
-0.425
 42
1.0
 10
-0.2379
 20
-0.475
  0
LWPOLYLINE
  5
125
330
103
100
AcDbEntity
  8
0
100
AcDbPolyline
 90
        2
 70
     0
 43
0.05
 10
0.2379
 20
-0.475
 42
1.0
 10
0.2379
 20
-0.425
  0
LWPOLYLINE
  5
129
330
103
100
AcDbEntity
  8
0
100
AcDbPolyline
 90
        2
 70
     0
 43
0.1
 10
-0.45
 20
-0.2379
 10
-0.45
 20
0.2379
  0
LWPOLYLINE
  5
12D
330
103
100
AcDbEntity
  8
0
100
AcDbPolyline
 90
        2
 70
     0
 43
0.05
 10
-0.425
 20
0.2379
 42
1.0
 10
-0.475
 20
0.2379
  0
LWPOLYLINE
  5
131
330
103
100
AcDbEntity
  8
0
100
AcDbPolyline
 90
        2
 70
     0
 43
0.05
 10
-0.475
 20
-0.2379
 42
1.0
 10
-0.425
 20
-0.2379
  0
ENDBLK
  5
135
330
103
100
AcDbEntity
  8
0
100
AcDbBlockEnd
  0
BLOCK
  5
137
330
136
100
AcDbEntity
  8
0
100
AcDbBlockBegin
  2
LONGP100
 70
     0
 10
0.0
 20
0.0
 30
0.0
  3
LONGP100
  1

  0
LWPOLYLINE
  5
138
330
136
100
AcDbEntity
  8
0
100
AcDbPolyline
 90
        2
 70
     0
 43
1.0
 10
-0.5
 20
0.0
 10
0.5
 20
0.0
  0
LWPOLYLINE
  5
13C
330
136
100
AcDbEntity
  8
0
100
AcDbPolyline
 90
        2
 70
     0
 43
0.5
 10
0.5
 20
-0.25
 42
1.0
 10
0.5
 20
0.25
  0
LWPOLYLINE
  5
140
330
136
100
AcDbEntity
  8
0
100
AcDbPolyline
 90
        2
 70
     0
 43
0.5
 10
-0.5
 20
0.25
 42
1.0
 10
-0.5
 20
-0.25
  0
ENDBLK
  5
144
330
136
100
AcDbEntity
  8
0
100
AcDbBlockEnd
  0
ENDSEC
  0
SECTION
  2
ENTITIES
  0
LWPOLYLINE
  5
4C08
330
36
100
AcDbEntity
  8
21
100
AcDbPolyline
 90
        2
 70
     0
 43
0.127
 10
17.7162
 20
20.5738
 10
57.7162
 20
20.5738
  0
LWPOLYLINE
  5
4C0C
330
36
100
AcDbEntity
  8
21
100
AcDbPolyline
 90
        2
 70
     0
 43
0.0635
 10
57.7162
 20
20.5421
 42
1.0
 10
57.7162
 20
20.6056
  0
LWPOLYLINE
  5
4C10
330
36
100
AcDbEntity
  8
21
100
AcDbPolyline
 90
        2
 70
     0
 43
0.0635
 10
17.7162
 20
20.6056
 42
1.0
 10
17.7162
 20
20.5421
  0
LWPOLYLINE
  5
4C14
330
36
100
AcDbEntity
  8
21
100
AcDbPolyline
 90
        2
 70
     0
 43
0.127
 10
17.7162
 20
20.5738
 10
17.7162
 20
24.5738
  0
LWPOLYLINE
  5
4C18
330
36
100
AcDbEntity
  8
21
100
AcDbPolyline
 90
        2
 70
     0
 43
0.0635
 10
17.7479
 20
24.5738
 42
1.0
 10
17.6845
 20
24.5738
  0
LWPOLYLINE
  5
4C1C
330
36
100
AcDbEntity
  8
21
100
AcDbPolyline
 90
        2
 70
     0
 43
0.0635
 10
17.6845
 20
20.5738
 42
1.0
 10
17.7479
 20
20.5738
  0
LWPOLYLINE
  5
4C20
330
36
100
AcDbEntity
  8
21
100
AcDbPolyline
 90
        2
 70
     0
 43
0.127
 10
21.7162
 20
28.5738
 10
53.7162
 20
28.5738
  0
LWPOLYLINE
  5
4C2C
330
36
100
AcDbEntity
  8
21
100
AcDbPolyline
 90
        2
 70
     0
 43
0.127
 10
57.7162
 20
24.5738
 10
57.7162
 20
20.5738
  0
LWPOLYLINE
  5
4C30
330
36
100
AcDbEntity
  8
21
100
AcDbPolyline
 90
        2
 70
     0
 43
0.0635
 10
57.6844
 20
20.5738
 42
1.0
 10
57.74799999999999
 20
20.5738
  0
LWPOLYLINE
  5
4C34
330
36
100
AcDbEntity
  8
21
100
AcDbPolyline
 90
        2
 70
     0
 43
0.0635
 10
57.74799999999999
 20
24.5738
 42
1.0
 10
57.6844
 20
24.5738
  0
LWPOLYLINE
  5
4C38
330
36
100
AcDbEntity
  8
21
100
AcDbPolyline
 90
        2
 70
     0
 43
0.127
 10
19.7162
 20
24.5738
 10
19.7162
 20
22.5738
  0
LWPOLYLINE
  5
4C3C
330
36
100
AcDbEntity
  8
21
100
AcDbPolyline
 90
        2
 70
     0
 43
0.0635
 10
19.6845
 20
22.5738
 42
1.0
 10
19.7479
 20
22.5738
  0
LWPOLYLINE
  5
4C40
330
36
100
AcDbEntity
  8
21
100
AcDbPolyline
 90
        2
 70
     0
 43
0.0635
 10
19.7479
 20
24.5738
 42
1.0
 10
19.6845
 20
24.5738
  0
LWPOLYLINE
  5
4C44
330
36
100
AcDbEntity
  8
21
100
AcDbPolyline
 90
        2
 70
     0
 43
0.127
 10
19.7162
 20
22.5738
 10
31.2162
 20
22.5738
  0
LWPOLYLINE
  5
4C48
330
36
100
AcDbEntity
  8
21
100
AcDbPolyline
 90
        2
 70
     0
 43
0.0635
 10
31.2162
 20
22.5421
 42
1.0
 10
31.2162
 20
22.6056
  0
LWPOLYLINE
  5
4C4C
330
36
100
AcDbEntity
  8
21
100
AcDbPolyline
 90
        2
 70
     0
 43
0.0635
 10
19.7162
 20
22.6056
 42
1.0
 10
19.7162
 20
22.5421
  0
LWPOLYLINE
  5
4C50
330
36
100
AcDbEntity
  8
21
100
AcDbPolyline
 90
        2
 70
     0
 43
0.127
 10
32.2162
 20
22.5738
 10
43.2162
 20
22.5738
  0
LWPOLYLINE
  5
4C54
330
36
100
AcDbEntity
  8
21
100
AcDbPolyline
 90
        2
 70
     0
 43
0.0635
 10
43.2162
 20
22.5421
 42
1.0
 10
43.2162
 20
22.6056
  0
LWPOLYLINE
  5
4C58
330
36
100
AcDbEntity
  8
21
100
AcDbPolyline
 90
        2
 70
     0
 43
0.0635
 10
32.2162
 20
22.6056
 42
1.0
 10
32.2162
 20
22.5421
  0
LWPOLYLINE
  5
4C5C
330
36
100
AcDbEntity
  8
21
100
AcDbPolyline
 90
        2
 70
     0
 43
0.127
 10
44.21619999999999
 20
22.5738
 10
55.7162
 20
22.5738
  0
LWPOLYLINE
  5
4C64
330
36
100
AcDbEntity
  8
21
100
AcDbPolyline
 90
        2
 70
     0
 43
0.0635
 10
44.21619999999999
 20
22.6056
 42
1.0
 10
44.21619999999999
 20
22.5421
  0
LWPOLYLINE
  5
4C68
330
36
100
AcDbEntity
  8
21
100
AcDbPolyline
 90
        2
 70
     0
 43
0.127
 10
21.7162
 20
26.5738
 10
31.2162
 20
26.5738
  0
LWPOLYLINE
  5
4C6C
330
36
100
AcDbEntity
  8
21
100
AcDbPolyline
 90
        2
 70
     0
 43
0.0635
 10
31.2162
 20
26.5421
 42
1.0
 10
31.2162
 20
26.6056
  0
LWPOLYLINE
  5
4C74
330
36
100
AcDbEntity
  8
21
100
AcDbPolyline
 90
        2
 70
     0
 43
0.127
 10
55.7162
 20
24.5738
 10
55.7162
 20
22.5738
  0
LWPOLYLINE
  5
4C7C
330
36
100
AcDbEntity
  8
21
100
AcDbPolyline
 90
        2
 70
     0
 43
0.0635
 10
55.74799999999999
 20
24.5738
 42
1.0
 10
55.68439999999998
 20
24.5738
  0
LWPOLYLINE
  5
4C80
330
36
100
AcDbEntity
  8
21
100
AcDbPolyline
 90
        2
 70
     0
 43
0.127
 10
31.2162
 20
26.5738
 10
31.2162
 20
22.5738
  0
LWPOLYLINE
  5
4C84
330
36
100
AcDbEntity
  8
21
100
AcDbPolyline
 90
        2
 70
     0
 43
0.0635
 10
31.1845
 20
22.5738
 42
1.0
 10
31.2479
 20
22.5738
  0
LWPOLYLINE
  5
4C88
330
36
100
AcDbEntity
  8
21
100
AcDbPolyline
 90
        2
 70
     0
 43
0.0635
 10
31.2479
 20
26.5738
 42
1.0
 10
31.1845
 20
26.5738
  0
LWPOLYLINE
  5
4C8C
330
36
100
AcDbEntity
  8
21
100
AcDbPolyline
 90
        2
 70
     0
 43
0.127
 10
32.2162
 20
26.5738
 10
32.2162
 20
22.5738
  0
LWPOLYLINE
  5
4C90
330
36
100
AcDbEntity
  8
21
100
AcDbPolyline
 90
        2
 70
     0
 43
0.0635
 10
32.1844
 20
22.5738
 42
1.0
 10
32.248
 20
22.5738
  0
LWPOLYLINE
  5
4C94
330
36
100
AcDbEntity
  8
21
100
AcDbPolyline
 90
        2
 70
     0
 43
0.0635
 10
32.248
 20
26.5738
 42
1.0
 10
32.1844
 20
26.5738
  0
LWPOLYLINE
  5
4C98
330
36
100
AcDbEntity
  8
21
100
AcDbPolyline
 90
        2
 70
     0
 43
0.127
 10
43.2162
 20
26.5738
 10
43.2162
 20
22.5738
  0
LWPOLYLINE
  5
4C9C
330
36
100
AcDbEntity
  8
21
100
AcDbPolyline
 90
        2
 70
     0
 43
0.0635
 10
43.18439999999998
 20
22.5738
 42
1.0
 10
43.24799999999998
 20
22.5738
  0
LWPOLYLINE
  5
4CA0
330
36
100
AcDbEntity
  8
21
100
AcDbPolyline
 90
        2
 70
     0
 43
0.0635
 10
43.24799999999998
 20
26.5738
 42
1.0
 10
43.18439999999998
 20
26.5738
  0
LWPOLYLINE
  5
4CA4
330
36
100
AcDbEntity
  8
21
100
AcDbPolyline
 90
        2
 70
     0
 43
0.127
 10
44.21619999999999
 20
26.5738
 10
44.21619999999999
 20
22.5738
  0
LWPOLYLINE
  5
4CA8
330
36
100
AcDbEntity
  8
21
100
AcDbPolyline
 90
        2
 70
     0
 43
0.0635
 10
44.18439999999999
 20
22.5738
 42
1.0
 10
44.248
 20
22.5738
  0
LWPOLYLINE
  5
4CAC
330
36
100
AcDbEntity
  8
21
100
AcDbPolyline
 90
        2
 70
     0
 43
0.0635
 10
44.248
 20
26.5738
 42
1.0
 10
44.18439999999999
 20
26.5738
  0
LWPOLYLINE
  5
4CB0
330
36
100
AcDbEntity
  8
21
100
AcDbPolyline
 90
        2
 70
     0
 43
0.127
 10
44.21619999999999
 20
26.5738
 10
53.7162
 20
26.5738
  0
LWPOLYLINE
  5
4CB8
330
36
100
AcDbEntity
  8
21
100
AcDbPolyline
 90
        2
 70
     0
 43
0.0635
 10
44.21619999999999
 20
26.6056
 42
1.0
 10
44.21619999999999
 20
26.5421
  0
LWPOLYLINE
  5
4CBC
330
36
100
AcDbEntity
  8
21
100
AcDbPolyline
 90
        2
 70
     0
 43
0.127
 10
32.2162
 20
26.5738
 10
43.2162
 20
26.5738
  0
LWPOLYLINE
  5
4CC0
330
36
100
AcDbEntity
  8
21
100
AcDbPolyline
 90
        2
 70
     0
 43
0.0635
 10
43.2162
 20
26.5421
 42
1.0
 10
43.2162
 20
26.6056
  0
LWPOLYLINE
  5
4CC4
330
36
100
AcDbEntity
  8
21
100
AcDbPolyline
 90
        2
 70
     0
 43
0.0635
 10
32.2162
 20
26.6056
 42
1.0
 10
32.2162
 20
26.5421
  0
LWPOLYLINE
  5
4CC8
330
36
100
AcDbEntity
  8
21
100
AcDbPolyline
 90
        2
 70
     0
 43
0.127
 10
15.7162
 20
30.5738
 10
59.7162
 20
30.5738
  0
LWPOLYLINE
  5
4CCC
330
36
100
AcDbEntity
  8
21
100
AcDbPolyline
 90
        2
 70
     0
 43
0.0635
 10
59.7162
 20
30.5421
 42
1.0
 10
59.7162
 20
30.6056
  0
LWPOLYLINE
  5
4CD0
330
36
100
AcDbEntity
  8
21
100
AcDbPolyline
 90
        2
 70
     0
 43
0.0635
 10
15.7162
 20
30.6056
 42
1.0
 10
15.7162
 20
30.5421
  0
LWPOLYLINE
  5
4CD4
330
36
100
AcDbEntity
  8
21
100
AcDbPolyline
 90
        2
 70
     0
 43
0.127
 10
59.7162
 20
30.5738
 10
59.7162
 20
21.5738
  0
LWPOLYLINE
  5
4CDC
330
36
100
AcDbEntity
  8
21
100
AcDbPolyline
 90
        2
 70
     0
 43
0.0635
 10
59.748
 20
30.5738
 42
1.0
 10
59.6844
 20
30.5738
  0
LWPOLYLINE
  5
4CFC
330
36
100
AcDbEntity
  8
21
100
AcDbPolyline
 90
        2
 70
     0
 43
0.0635
 10
15.748
 20
21.5738
 42
1.0
 10
15.6845
 20
21.5738
  0
LWPOLYLINE
  5
4D04
330
36
100
AcDbEntity
  8
21
100
AcDbPolyline
 90
        2
 70
     0
 43
0.127
 10
15.7162
 20
21.5738
 10
15.7162
 20
30.5738
  0
LWPOLYLINE
  5
4D08
330
36
100
AcDbEntity
  8
21
100
AcDbPolyline
 90
        2
 70
     0
 43
0.0635
 10
15.748
 20
30.5738
 42
1.0
 10
15.6845
 20
30.5738
  0
LWPOLYLINE
  5
4D0C
330
36
100
AcDbEntity
  8
21
100
AcDbPolyline
 90
        2
 70
     0
 43
0.0635
 10
15.6845
 20
21.5738
 42
1.0
 10
15.748
 20
21.5738
  0
LWPOLYLINE
  5
4D10
330
36
100
AcDbEntity
  8
21
100
AcDbPolyline
 90
        2
 70
     0
 43
0.127
 10
21.7162
 20
28.5738
 42
0.4142000000000002
 10
17.7162
 20
24.5738
  0
LWPOLYLINE
  5
4D18
330
36
100
AcDbEntity
  8
21
100
AcDbPolyline
 90
        2
 70
     0
 43
0.0635
 10
17.6845
 20
24.5738
 42
1.0
 10
17.7479
 20
24.5738
  0
LWPOLYLINE
  5
4D1C
330
36
100
AcDbEntity
  8
21
100
AcDbPolyline
 90
        2
 70
     0
 43
0.127
 10
57.7162
 20
24.5738
 42
0.4142000000000002
 10
53.7162
 20
28.5738
  0
LWPOLYLINE
  5
4D20
330
36
100
AcDbEntity
  8
21
100
AcDbPolyline
 90
        2
 70
     0
 43
0.0635
 10
57.6844
 20
24.5738
 42
1.0
 10
57.74799999999999
 20
24.5738
  0
LWPOLYLINE
  5
4D28
330
36
100
AcDbEntity
  8
21
100
AcDbPolyline
 90
        2
 70
     0
 43
0.127
 10
21.7162
 20
26.5738
 42
0.4142000000000002
 10
19.7162
 20
24.5738
  0
LWPOLYLINE
  5
4D30
330
36
100
AcDbEntity
  8
21
100
AcDbPolyline
 90
        2
 70
     0
 43
0.0635
 10
19.6845
 20
24.5738
 42
1.0
 10
19.7479
 20
24.5738
  0
LWPOLYLINE
  5
4D34
330
36
100
AcDbEntity
  8
21
100
AcDbPolyline
 90
        2
 70
     0
 43
0.127
 10
55.7162
 20
24.5738
 42
0.4142000000000002
 10
53.7162
 20
26.5738
  0
LWPOLYLINE
  5
4D38
330
36
100
AcDbEntity
  8
21
100
AcDbPolyline
 90
        2
 70
     0
 43
0.0635
 10
55.68439999999998
 20
24.5738
 42
1.0
 10
55.74799999999999
 20
24.5738
  0
LWPOLYLINE
  5
4D40
330
36
100
AcDbEntity
  8
21
100
AcDbPolyline
 90
        2
 70
     0
 43
0.127
 10
17.7162
 20
7.5738
 10
57.7162
 20
7.5738
  0
LWPOLYLINE
  5
4D44
330
36
100
AcDbEntity
  8
21
100
AcDbPolyline
 90
        2
 70
     0
 43
0.0635
 10
57.7162
 20
7.542099999999998
 42
1.0
 10
57.7162
 20
7.605599999999999
  0
LWPOLYLINE
  5
4D48
330
36
100
AcDbEntity
  8
21
100
AcDbPolyline
 90
        2
 70
     0
 43
0.0635
 10
17.7162
 20
7.605599999999999
 42
1.0
 10
17.7162
 20
7.542099999999998
  0
LWPOLYLINE
  5
4D4C
330
36
100
AcDbEntity
  8
21
100
AcDbPolyline
 90
        2
 70
     0
 43
0.127
 10
17.7162
 20
7.5738
 10
17.7162
 20
11.5738
  0
LWPOLYLINE
  5
4D50
330
36
100
AcDbEntity
  8
21
100
AcDbPolyline
 90
        2
 70
     0
 43
0.0635
 10
17.7479
 20
11.5738
 42
1.0
 10
17.6845
 20
11.5738
  0
LWPOLYLINE
  5
4D54
330
36
100
AcDbEntity
  8
21
100
AcDbPolyline
 90
        2
 70
     0
 43
0.0635
 10
17.6845
 20
7.5738
 42
1.0
 10
17.7479
 20
7.5738
  0
LWPOLYLINE
  5
4D58
330
36
100
AcDbEntity
  8
21
100
AcDbPolyline
 90
        2
 70
     0
 43
0.127
 10
21.7162
 20
15.5738
 10
53.7162
 20
15.5738
  0
LWPOLYLINE
  5
4D60
330
36
100
AcDbEntity
  8
21
100
AcDbPolyline
 90
        2
 70
     0
 43
0.0635
 10
21.7162
 20
15.6056
 42
1.0
 10
21.7162
 20
15.542
  0
LWPOLYLINE
  5
4D64
330
36
100
AcDbEntity
  8
21
100
AcDbPolyline
 90
        2
 70
     0
 43
0.127
 10
57.7162
 20
11.5738
 10
57.7162
 20
7.5738
  0
LWPOLYLINE
  5
4D68
330
36
100
AcDbEntity
  8
21
100
AcDbPolyline
 90
        2
 70
     0
 43
0.0635
 10
57.6844
 20
7.5738
 42
1.0
 10
57.74799999999999
 20
7.5738
  0
LWPOLYLINE
  5
4D6C
330
36
100
AcDbEntity
  8
21
100
AcDbPolyline
 90
        2
 70
     0
 43
0.0635
 10
57.74799999999999
 20
11.5738
 42
1.0
 10
57.6844
 20
11.5738
  0
LWPOLYLINE
  5
4D70
330
36
100
AcDbEntity
  8
21
100
AcDbPolyline
 90
        2
 70
     0
 43
0.127
 10
19.7162
 20
11.5738
 10
19.7162
 20
9.5738
  0
LWPOLYLINE
  5
4D74
330
36
100
AcDbEntity
  8
21
100
AcDbPolyline
 90
        2
 70
     0
 43
0.0635
 10
19.6845
 20
9.5738
 42
1.0
 10
19.7479
 20
9.5738
  0
LWPOLYLINE
  5
4D78
330
36
100
AcDbEntity
  8
21
100
AcDbPolyline
 90
        2
 70
     0
 43
0.0635
 10
19.7479
 20
11.5738
 42
1.0
 10
19.6845
 20
11.5738
  0
LWPOLYLINE
  5
4D7C
330
36
100
AcDbEntity
  8
21
100
AcDbPolyline
 90
        2
 70
     0
 43
0.127
 10
19.7162
 20
9.5738
 10
31.2162
 20
9.5738
  0
LWPOLYLINE
  5
4D80
330
36
100
AcDbEntity
  8
21
100
AcDbPolyline
 90
        2
 70
     0
 43
0.0635
 10
31.2162
 20
9.541999999999999
 42
1.0
 10
31.2162
 20
9.6056
  0
LWPOLYLINE
  5
4D84
330
36
100
AcDbEntity
  8
21
100
AcDbPolyline
 90
        2
 70
     0
 43
0.0635
 10
19.7162
 20
9.6056
 42
1.0
 10
19.7162
 20
9.541999999999999
  0
LWPOLYLINE
  5
4D88
330
36
100
AcDbEntity
  8
21
100
AcDbPolyline
 90
        2
 70
     0
 43
0.127
 10
32.2162
 20
9.5738
 10
43.2162
 20
9.5738
  0
LWPOLYLINE
  5
4D8C
330
36
100
AcDbEntity
  8
21
100
AcDbPolyline
 90
        2
 70
     0
 43
0.0635
 10
43.2162
 20
9.541999999999999
 42
1.0
 10
43.2162
 20
9.6056
  0
LWPOLYLINE
  5
4D90
330
36
100
AcDbEntity
  8
21
100
AcDbPolyline
 90
        2
 70
     0
 43
0.0635
 10
32.2162
 20
9.6056
 42
1.0
 10
32.2162
 20
9.541999999999999
  0
LWPOLYLINE
  5
4D94
330
36
100
AcDbEntity
  8
21
100
AcDbPolyline
 90
        2
 70
     0
 43
0.127
 10
44.21619999999999
 20
9.5738
 10
55.7162
 20
9.5738
  0
LWPOLYLINE
  5
4D98
330
36
100
AcDbEntity
  8
21
100
AcDbPolyline
 90
        2
 70
     0
 43
0.0635
 10
55.7162
 20
9.541999999999999
 42
1.0
 10
55.7162
 20
9.6056
  0
LWPOLYLINE
  5
4D9C
330
36
100
AcDbEntity
  8
21
100
AcDbPolyline
 90
        2
 70
     0
 43
0.0635
 10
44.21619999999999
 20
9.6056
 42
1.0
 10
44.21619999999999
 20
9.541999999999999
  0
LWPOLYLINE
  5
4DA0
330
36
100
AcDbEntity
  8
21
100
AcDbPolyline
 90
        2
 70
     0
 43
0.127
 10
21.7162
 20
13.5738
 10
31.2162
 20
13.5738
  0
LWPOLYLINE
  5
4DA4
330
36
100
AcDbEntity
  8
21
100
AcDbPolyline
 90
        2
 70
     0
 43
0.0635
 10
31.2162
 20
13.542
 42
1.0
 10
31.2162
 20
13.6056
  0
LWPOLYLINE
  5
4DA8
330
36
100
AcDbEntity
  8
21
100
AcDbPolyline
 90
        2
 70
     0
 43
0.0635
 10
21.7162
 20
13.6056
 42
1.0
 10
21.7162
 20
13.542
  0
LWPOLYLINE
  5
4DAC
330
36
100
AcDbEntity
  8
21
100
AcDbPolyline
 90
        2
 70
     0
 43
0.127
 10
55.7162
 20
11.5738
 10
55.7162
 20
9.5738
  0
LWPOLYLINE
  5
4DB0
330
36
100
AcDbEntity
  8
21
100
AcDbPolyline
 90
        2
 70
     0
 43
0.0635
 10
55.68439999999998
 20
9.5738
 42
1.0
 10
55.74799999999999
 20
9.5738
  0
LWPOLYLINE
  5
4DB4
330
36
100
AcDbEntity
  8
21
100
AcDbPolyline
 90
        2
 70
     0
 43
0.0635
 10
55.74799999999999
 20
11.5738
 42
1.0
 10
55.68439999999998
 20
11.5738
  0
LWPOLYLINE
  5
4DB8
330
36
100
AcDbEntity
  8
21
100
AcDbPolyline
 90
        2
 70
     0
 43
0.127
 10
31.2162
 20
13.5738
 10
31.2162
 20
9.5738
  0
LWPOLYLINE
  5
4DBC
330
36
100
AcDbEntity
  8
21
100
AcDbPolyline
 90
        2
 70
     0
 43
0.0635
 10
31.1845
 20
9.5738
 42
1.0
 10
31.2479
 20
9.5738
  0
LWPOLYLINE
  5
4DC0
330
36
100
AcDbEntity
  8
21
100
AcDbPolyline
 90
        2
 70
     0
 43
0.0635
 10
31.2479
 20
13.5738
 42
1.0
 10
31.1845
 20
13.5738
  0
LWPOLYLINE
  5
4DC4
330
36
100
AcDbEntity
  8
21
100
AcDbPolyline
 90
        2
 70
     0
 43
0.127
 10
32.2162
 20
13.5738
 10
32.2162
 20
9.5738
  0
LWPOLYLINE
  5
4DC8
330
36
100
AcDbEntity
  8
21
100
AcDbPolyline
 90
        2
 70
     0
 43
0.0635
 10
32.1844
 20
9.5738
 42
1.0
 10
32.248
 20
9.5738
  0
LWPOLYLINE
  5
4DCC
330
36
100
AcDbEntity
  8
21
100
AcDbPolyline
 90
        2
 70
     0
 43
0.0635
 10
32.248
 20
13.5738
 42
1.0
 10
32.1844
 20
13.5738
  0
LWPOLYLINE
  5
4DD0
330
36
100
AcDbEntity
  8
21
100
AcDbPolyline
 90
        2
 70
     0
 43
0.127
 10
43.2162
 20
13.5738
 10
43.2162
 20
9.5738
  0
LWPOLYLINE
  5
4DD4
330
36
100
AcDbEntity
  8
21
100
AcDbPolyline
 90
        2
 70
     0
 43
0.0635
 10
43.18439999999998
 20
9.5738
 42
1.0
 10
43.24799999999998
 20
9.5738
  0
LWPOLYLINE
  5
4DD8
330
36
100
AcDbEntity
  8
21
100
AcDbPolyline
 90
        2
 70
     0
 43
0.0635
 10
43.24799999999998
 20
13.5738
 42
1.0
 10
43.18439999999998
 20
13.5738
  0
LWPOLYLINE
  5
4DDC
330
36
100
AcDbEntity
  8
21
100
AcDbPolyline
 90
        2
 70
     0
 43
0.127
 10
44.21619999999999
 20
13.5738
 10
44.21619999999999
 20
9.5738
  0
LWPOLYLINE
  5
4DE0
330
36
100
AcDbEntity
  8
21
100
AcDbPolyline
 90
        2
 70
     0
 43
0.0635
 10
44.18439999999999
 20
9.5738
 42
1.0
 10
44.248
 20
9.5738
  0
LWPOLYLINE
  5
4DE4
330
36
100
AcDbEntity
  8
21
100
AcDbPolyline
 90
        2
 70
     0
 43
0.0635
 10
44.248
 20
13.5738
 42
1.0
 10
44.18439999999999
 20
13.5738
  0
LWPOLYLINE
  5
4DE8
330
36
100
AcDbEntity
  8
21
100
AcDbPolyline
 90
        2
 70
     0
 43
0.127
 10
44.21619999999999
 20
13.5738
 10
53.7162
 20
13.5738
  0
LWPOLYLINE
  5
4DEC
330
36
100
AcDbEntity
  8
21
100
AcDbPolyline
 90
        2
 70
     0
 43
0.0635
 10
53.7162
 20
13.542
 42
1.0
 10
53.7162
 20
13.6056
  0
LWPOLYLINE
  5
4DF0
330
36
100
AcDbEntity
  8
21
100
AcDbPolyline
 90
        2
 70
     0
 43
0.0635
 10
44.21619999999999
 20
13.6056
 42
1.0
 10
44.21619999999999
 20
13.542
  0
LWPOLYLINE
  5
4DF4
330
36
100
AcDbEntity
  8
21
100
AcDbPolyline
 90
        2
 70
     0
 43
0.127
 10
32.2162
 20
13.5738
 10
43.2162
 20
13.5738
  0
LWPOLYLINE
  5
4DF8
330
36
100
AcDbEntity
  8
21
100
AcDbPolyline
 90
        2
 70
     0
 43
0.0635
 10
43.2162
 20
13.542
 42
1.0
 10
43.2162
 20
13.6056
  0
LWPOLYLINE
  5
4DFC
330
36
100
AcDbEntity
  8
21
100
AcDbPolyline
 90
        2
 70
     0
 43
0.0635
 10
32.2162
 20
13.6056
 42
1.0
 10
32.2162
 20
13.542
  0
LWPOLYLINE
  5
4E10
330
36
100
AcDbEntity
  8
21
100
AcDbPolyline
 90
        2
 70
     0
 43
0.0635
 10
59.6844
 20
14.5738
 42
1.0
 10
59.748
 20
14.5738
  0
LWPOLYLINE
  5
4E18
330
36
100
AcDbEntity
  8
21
100
AcDbPolyline
 90
        2
 70
     0
 43
0.127
 10
59.7162
 20
14.5738
 10
59.7162
 20
5.5738
  0
LWPOLYLINE
  5
4E1C
330
36
100
AcDbEntity
  8
21
100
AcDbPolyline
 90
        2
 70
     0
 43
0.0635
 10
59.6844
 20
5.5738
 42
1.0
 10
59.748
 20
5.5738
  0
LWPOLYLINE
  5
4E20
330
36
100
AcDbEntity
  8
21
100
AcDbPolyline
 90
        2
 70
     0
 43
0.0635
 10
59.748
 20
14.5738
 42
1.0
 10
59.6844
 20
14.5738
  0
LWPOLYLINE
  5
4E24
330
36
100
AcDbEntity
  8
21
100
AcDbPolyline
 90
        2
 70
     0
 43
0.127
 10
59.7162
 20
5.5738
 10
15.7162
 20
5.5738
  0
LWPOLYLINE
  5
4E28
330
36
100
AcDbEntity
  8
21
100
AcDbPolyline
 90
        2
 70
     0
 43
0.0635
 10
15.7162
 20
5.605599999999999
 42
1.0
 10
15.7162
 20
5.542099999999998
  0
LWPOLYLINE
  5
4E2C
330
36
100
AcDbEntity
  8
21
100
AcDbPolyline
 90
        2
 70
     0
 43
0.0635
 10
59.7162
 20
5.542099999999998
 42
1.0
 10
59.7162
 20
5.605599999999999
  0
LWPOLYLINE
  5
4E30
330
36
100
AcDbEntity
  8
21
100
AcDbPolyline
 90
        2
 70
     0
 43
0.127
 10
15.7162
 20
5.5738
 10
15.7162
 20
14.5738
  0
LWPOLYLINE
  5
4E34
330
36
100
AcDbEntity
  8
21
100
AcDbPolyline
 90
        2
 70
     0
 43
0.0635
 10
15.748
 20
14.5738
 42
1.0
 10
15.6845
 20
14.5738
  0
LWPOLYLINE
  5
4E38
330
36
100
AcDbEntity
  8
21
100
AcDbPolyline
 90
        2
 70
     0
 43
0.0635
 10
15.6845
 20
5.5738
 42
1.0
 10
15.748
 20
5.5738
  0
LWPOLYLINE
  5
4E44
330
36
100
AcDbEntity
  8
21
100
AcDbPolyline
 90
        2
 70
     0
 43
0.0635
 10
15.6845
 20
14.5738
 42
1.0
 10
15.748
 20
14.5738
  0
LWPOLYLINE
  5
4E48
330
36
100
AcDbEntity
  8
21
100
AcDbPolyline
 90
        2
 70
     0
 43
0.127
 10
21.7162
 20
15.5738
 42
0.4142000000000002
 10
17.7162
 20
11.5738
  0
LWPOLYLINE
  5
4E4C
330
36
100
AcDbEntity
  8
21
100
AcDbPolyline
 90
        2
 70
     0
 43
0.0635
 10
21.7162
 20
15.542
 42
1.0
 10
21.7162
 20
15.6056
  0
LWPOLYLINE
  5
4E50
330
36
100
AcDbEntity
  8
21
100
AcDbPolyline
 90
        2
 70
     0
 43
0.0635
 10
17.6845
 20
11.5738
 42
1.0
 10
17.7479
 20
11.5738
  0
LWPOLYLINE
  5
4E54
330
36
100
AcDbEntity
  8
21
100
AcDbPolyline
 90
        2
 70
     0
 43
0.127
 10
57.7162
 20
11.5738
 42
0.4142000000000002
 10
53.7162
 20
15.5738
  0
LWPOLYLINE
  5
4E58
330
36
100
AcDbEntity
  8
21
100
AcDbPolyline
 90
        2
 70
     0
 43
0.0635
 10
57.6844
 20
11.5738
 42
1.0
 10
57.74799999999999
 20
11.5738
  0
LWPOLYLINE
  5
4E60
330
36
100
AcDbEntity
  8
21
100
AcDbPolyline
 90
        2
 70
     0
 43
0.127
 10
21.7162
 20
13.5738
 42
0.4142000000000002
 10
19.7162
 20
11.5738
  0
LWPOLYLINE
  5
4E64
330
36
100
AcDbEntity
  8
21
100
AcDbPolyline
 90
        2
 70
     0
 43
0.0635
 10
21.7162
 20
13.542
 42
1.0
 10
21.7162
 20
13.6056
  0
LWPOLYLINE
  5
4E68
330
36
100
AcDbEntity
  8
21
100
AcDbPolyline
 90
        2
 70
     0
 43
0.0635
 10
19.6845
 20
11.5738
 42
1.0
 10
19.7479
 20
11.5738
  0
LWPOLYLINE
  5
4E6C
330
36
100
AcDbEntity
  8
21
100
AcDbPolyline
 90
        2
 70
     0
 43
0.127
 10
55.7162
 20
11.5738
 42
0.4142000000000002
 10
53.7162
 20
13.5738
  0
LWPOLYLINE
  5
4E70
330
36
100
AcDbEntity
  8
21
100
AcDbPolyline
 90
        2
 70
     0
 43
0.0635
 10
55.68439999999998
 20
11.5738
 42
1.0
 10
55.74799999999999
 20
11.5738
  0
LWPOLYLINE
  5
4E74
330
36
100
AcDbEntity
  8
21
100
AcDbPolyline
 90
        2
 70
     0
 43
0.0635
 10
53.7162
 20
13.6056
 42
1.0
 10
53.7162
 20
13.542
  0
LWPOLYLINE
  5
4E78
330
36
100
AcDbEntity
  8
21
100
AcDbPolyline
 90
        2
 70
     0
 43
0.127
 10
15.7162
 20
21.5738
 10
8.7162
 20
21.5738
  0
LWPOLYLINE
  5
4E80
330
36
100
AcDbEntity
  8
21
100
AcDbPolyline
 90
        2
 70
     0
 43
0.0635
 10
15.7162
 20
21.5421
 42
1.0
 10
15.7162
 20
21.6056
  0
LWPOLYLINE
  5
4E84
330
36
100
AcDbEntity
  8
21
100
AcDbPolyline
 90
        2
 70
     0
 43
0.127
 10
8.7162
 20
21.5738
 10
8.7162
 20
14.5738
  0
LWPOLYLINE
  5
4E88
330
36
100
AcDbEntity
  8
21
100
AcDbPolyline
 90
        2
 70
     0
 43
0.0635
 10
8.684499999999998
 20
14.5738
 42
1.0
 10
8.747999999999999
 20
14.5738
  0
LWPOLYLINE
  5
4E90
330
36
100
AcDbEntity
  8
21
100
AcDbPolyline
 90
        2
 70
     0
 43
0.127
 10
8.7162
 20
14.5738
 10
15.7162
 20
14.5738
  0
LWPOLYLINE
  5
4E94
330
36
100
AcDbEntity
  8
21
100
AcDbPolyline
 90
        2
 70
     0
 43
0.0635
 10
15.7162
 20
14.542
 42
1.0
 10
15.7162
 20
14.6056
  0
LWPOLYLINE
  5
4E98
330
36
100
AcDbEntity
  8
21
100
AcDbPolyline
 90
        2
 70
     0
 43
0.0635
 10
8.7162
 20
14.6056
 42
1.0
 10
8.7162
 20
14.542
  0
LWPOLYLINE
  5
4E9C
330
36
100
AcDbEntity
  8
21
100
AcDbPolyline
 90
        2
 70
     0
 43
0.127
 10
66.7162
 20
21.5738
 10
66.7162
 20
14.5738
  0
LWPOLYLINE
  5
4EA0
330
36
100
AcDbEntity
  8
21
100
AcDbPolyline
 90
        2
 70
     0
 43
0.0635
 10
66.6844
 20
14.5738
 42
1.0
 10
66.74800000000001
 20
14.5738
  0
LWPOLYLINE
  5
4EA8
330
36
100
AcDbEntity
  8
21
100
AcDbPolyline
 90
        2
 70
     0
 43
0.127
 10
66.7162
 20
14.5738
 10
59.7162
 20
14.5738
  0
LWPOLYLINE
  5
4EAC
330
36
100
AcDbEntity
  8
21
100
AcDbPolyline
 90
        2
 70
     0
 43
0.0635
 10
59.7162
 20
14.6056
 42
1.0
 10
59.7162
 20
14.542
  0
LWPOLYLINE
  5
4EB0
330
36
100
AcDbEntity
  8
21
100
AcDbPolyline
 90
        2
 70
     0
 43
0.0635
 10
66.7162
 20
14.542
 42
1.0
 10
66.7162
 20
14.6056
  0
LWPOLYLINE
  5
4EB4
330
36
100
AcDbEntity
  8
21
100
AcDbPolyline
 90
        2
 70
     0
 43
0.127
 10
59.7162
 20
21.5738
 10
66.7162
 20
21.5738
  0
LWPOLYLINE
  5
4EC0
330
36
100
AcDbEntity
  8
21
100
AcDbPolyline
 90
        3
 70
     0
 43
0.127
 10
21.7162
 20
23.5738
 42
1.0
 10
21.7162
 20
25.5738
 42
1.0
 10
21.7162
 20
23.5738
  0
LWPOLYLINE
  5
4EC5
330
36
100
AcDbEntity
  8
21
100
AcDbPolyline
 90
        3
 70
     0
 43
0.127
 10
25.7162
 20
23.5738
 42
1.0
 10
25.7162
 20
25.5738
 42
1.0
 10
25.7162
 20
23.5738
  0
LWPOLYLINE
  5
4ECA
330
36
100
AcDbEntity
  8
21
100
AcDbPolyline
 90
        3
 70
     0
 43
0.127
 10
29.7162
 20
23.5738
 42
1.0
 10
29.7162
 20
25.5738
 42
1.0
 10
29.7162
 20
23.5738
  0
LWPOLYLINE
  5
4ECF
330
36
100
AcDbEntity
  8
21
100
AcDbPolyline
 90
        3
 70
     0
 43
0.127
 10
33.7162
 20
23.5738
 42
1.0
 10
33.7162
 20
25.5738
 42
1.0
 10
33.7162
 20
23.5738
  0
LWPOLYLINE
  5
4ED4
330
36
100
AcDbEntity
  8
21
100
AcDbPolyline
 90
        3
 70
     0
 43
0.127
 10
37.7162
 20
23.5738
 42
1.0
 10
37.7162
 20
25.5738
 42
1.0
 10
37.7162
 20
23.5738
  0
LWPOLYLINE
  5
4ED9
330
36
100
AcDbEntity
  8
21
100
AcDbPolyline
 90
        3
 70
     0
 43
0.127
 10
41.71619999999999
 20
23.5738
 42
1.0
 10
41.71619999999999
 20
25.5738
 42
1.0
 10
41.71619999999999
 20
23.5738
  0
LWPOLYLINE
  5
4EDE
330
36
100
AcDbEntity
  8
21
100
AcDbPolyline
 90
        3
 70
     0
 43
0.127
 10
53.7162
 20
23.5738
 42
1.0
 10
53.7162
 20
25.5738
 42
1.0
 10
53.7162
 20
23.5738
  0
LWPOLYLINE
  5
4EE3
330
36
100
AcDbEntity
  8
21
100
AcDbPolyline
 90
        3
 70
     0
 43
0.127
 10
49.7162
 20
23.5738
 42
1.0
 10
49.7162
 20
25.5738
 42
1.0
 10
49.7162
 20
23.5738
  0
LWPOLYLINE
  5
4EE8
330
36
100
AcDbEntity
  8
21
100
AcDbPolyline
 90
        3
 70
     0
 43
0.127
 10
45.7162
 20
23.5738
 42
1.0
 10
45.7162
 20
25.5738
 42
1.0
 10
45.7162
 20
23.5738
  0
LWPOLYLINE
  5
4EED
330
36
100
AcDbEntity
  8
21
100
AcDbPolyline
 90
        3
 70
     0
 43
0.127
 10
21.7162
 20
10.5738
 42
1.0
 10
21.7162
 20
12.5738
 42
1.0
 10
21.7162
 20
10.5738
  0
LWPOLYLINE
  5
4EF2
330
36
100
AcDbEntity
  8
21
100
AcDbPolyline
 90
        3
 70
     0
 43
0.127
 10
25.7162
 20
10.5738
 42
1.0
 10
25.7162
 20
12.5738
 42
1.0
 10
25.7162
 20
10.5738
  0
LWPOLYLINE
  5
4EF7
330
36
100
AcDbEntity
  8
21
100
AcDbPolyline
 90
        3
 70
     0
 43
0.127
 10
29.7162
 20
10.5738
 42
1.0
 10
29.7162
 20
12.5738
 42
1.0
 10
29.7162
 20
10.5738
  0
LWPOLYLINE
  5
4EFC
330
36
100
AcDbEntity
  8
21
100
AcDbPolyline
 90
        3
 70
     0
 43
0.127
 10
33.7162
 20
10.5738
 42
1.0
 10
33.7162
 20
12.5738
 42
1.0
 10
33.7162
 20
10.5738
  0
LWPOLYLINE
  5
4F01
330
36
100
AcDbEntity
  8
21
100
AcDbPolyline
 90
        3
 70
     0
 43
0.127
 10
37.7162
 20
10.5738
 42
1.0
 10
37.7162
 20
12.5738
 42
1.0
 10
37.7162
 20
10.5738
  0
LWPOLYLINE
  5
4F06
330
36
100
AcDbEntity
  8
21
100
AcDbPolyline
 90
        3
 70
     0
 43
0.127
 10
41.71619999999999
 20
10.5738
 42
1.0
 10
41.71619999999999
 20
12.5738
 42
1.0
 10
41.71619999999999
 20
10.5738
  0
LWPOLYLINE
  5
4F0B
330
36
100
AcDbEntity
  8
21
100
AcDbPolyline
 90
        3
 70
     0
 43
0.127
 10
53.7162
 20
10.5738
 42
1.0
 10
53.7162
 20
12.5738
 42
1.0
 10
53.7162
 20
10.5738
  0
LWPOLYLINE
  5
4F10
330
36
100
AcDbEntity
  8
21
100
AcDbPolyline
 90
        3
 70
     0
 43
0.127
 10
49.7162
 20
10.5738
 42
1.0
 10
49.7162
 20
12.5738
 42
1.0
 10
49.7162
 20
10.5738
  0
LWPOLYLINE
  5
4F15
330
36
100
AcDbEntity
  8
21
100
AcDbPolyline
 90
        3
 70
     0
 43
0.127
 10
45.7162
 20
10.5738
 42
1.0
 10
45.7162
 20
12.5738
 42
1.0
 10
45.7162
 20
10.5738
  0
CIRCLE
  5
4F1A
330
36
100
AcDbEntity
  8
20
100
AcDbCircle
 10
11.7162
 20
18.0738
 30
0.0
 40
1.6
  0
CIRCLE
  5
4F1B
330
36
100
AcDbEntity
  8
20
100
AcDbCircle
 10
63.7162
 20
18.0738
 30
0.0
 40
1.6
  0
ENDSEC
  0
SECTION
  2
OBJECTS
  0
DICTIONARY
  5
C
330
0
100
AcDbDictionary
281
     1
  3
ACAD_COLOR
350
2F
  3
ACAD_GROUP
350
D
  3
ACAD_LAYOUT
350
2E
  3
ACAD_MATERIAL
350
10
  3
ACAD_MLINESTYLE
350
2B
  3
ACAD_PLOTSETTINGS
350
2D
  3
ACAD_PLOTSTYLENAME
350
E
  3
ACAD_TABLESTYLE
350
30
  3
ACAD_VISUALSTYLE
350
14
  3
AcDbVariableDictionary
350
7969
  0
DICTIONARY
  5
2F
102
{ACAD_REACTORS
330
C
102
}
330
C
100
AcDbDictionary
281
     1
  0
DICTIONARY
  5
D
102
{ACAD_REACTORS
330
C
102
}
330
C
100
AcDbDictionary
281
     1
  0
DICTIONARY
  5
2E
102
{ACAD_REACTORS
330
C
102
}
330
C
100
AcDbDictionary
281
     1
  3
Layout1
350
35
  3
Model
350
39
  0
DICTIONARY
  5
10
102
{ACAD_REACTORS
330
C
102
}
330
C
100
AcDbDictionary
281
     1
  3
ByBlock
350
12
  3
ByLayer
350
11
  3
Global
350
13
  0
DICTIONARY
  5
2B
102
{ACAD_REACTORS
330
C
102
}
330
C
100
AcDbDictionary
281
     1
  3
Standard
350
2C
  0
DICTIONARY
  5
2D
102
{ACAD_REACTORS
330
C
102
}
330
C
100
AcDbDictionary
281
     1
  0
ACDBDICTIONARYWDFLT
  5
E
102
{ACAD_REACTORS
330
C
102
}
330
C
100
AcDbDictionary
281
     1
  3
Normal
350
F
100
AcDbDictionaryWithDefault
340
F
  0
DICTIONARY
  5
30
102
{ACAD_REACTORS
330
C
102
}
330
C
100
AcDbDictionary
281
     1
  3
Standard
350
31
  0
DICTIONARY
  5
14
102
{ACAD_REACTORS
330
C
102
}
330
C
100
AcDbDictionary
281
     1
  3
2dWireframe
350
1A
  3
3D Hidden
350
1C
  3
3dWireframe
350
1B
  3
Basic
350
19
  3
Brighten
350
20
  3
ColorChange
350
24
  3
Conceptual
350
1D
  3
Dim
350
1F
  3
Facepattern
350
23
  3
Flat
350
15
  3
FlatWithEdges
350
16
  3
Gouraud
350
17
  3
GouraudWithEdges
350
18
  3
Linepattern
350
22
  3
Realistic
350
1E
  3
Thicken
350
21
  0
DICTIONARY
  5
7969
102
{ACAD_REACTORS
330
C
102
}
330
C
100
AcDbDictionary
281
     1
  3
CTABLESTYLE
350
796A
  3
LOFTANG1
350
7975
  3
LOFTANG2
350
7976
  0
LAYOUT
  5
35
102
{ACAD_REACTORS
330
2E
102
}
330
2E
100
AcDbPlotSettings
  1

  2
Dell Laser MFP 1815
  4

  6

 40
0.0
 41
0.0
 42
0.0
 43
0.0
 44
0.0
 45
0.0
 46
0.0
 47
0.0
 48
0.0
 49
0.0
140
0.0
141
0.0
142
1.0
143
1.0
 70
   688
 72
     0
 73
     0
 74
     5
  7

 75
    16
147
1.0
 76
     0
 77
     2
 78
   300
148
0.0
149
0.0
100
AcDbLayout
  1
Layout1
 70
     1
 71
     1
 10
0.0
 20
0.0
 11
12.0
 21
9.0
 12
0.0
 22
0.0
 32
0.0
 14
1.000000000000000E+20
 24
1.000000000000000E+20
 34
1.000000000000000E+20
 15
-1.000000000000000E+20
 25
-1.000000000000000E+20
 35
-1.000000000000000E+20
146
0.0
 13
0.0
 23
0.0
 33
0.0
 16
1.0
 26
0.0
 36
0.0
 17
0.0
 27
1.0
 37
0.0
 76
     0
330
32
  0
LAYOUT
  5
39
102
{ACAD_REACTORS
330
2E
102
}
330
2E
100
AcDbPlotSettings
  1

  2
Dell Laser MFP 1815
  4

  6

 40
0.0
 41
0.0
 42
0.0
 43
0.0
 44
0.0
 45
0.0
 46
0.0
 47
0.0
 48
0.0
 49
0.0
140
0.0
141
0.0
142
1.0
143
1.0
 70
  1712
 72
     0
 73
     0
 74
     0
  7

 75
     0
147
1.0
 76
     0
 77
     2
 78
   300
148
0.0
149
0.0
100
AcDbLayout
  1
Model
 70
     1
 71
     0
 10
0.0
 20
0.0
 11
12.0
 21
9.0
 12
0.0
 22
0.0
 32
0.0
 14
0.0
 24
0.0
 34
0.0
 15
0.0
 25
0.0
 35
0.0
146
0.0
 13
0.0
 23
0.0
 33
0.0
 16
1.0
 26
0.0
 36
0.0
 17
0.0
 27
1.0
 37
0.0
 76
     0
330
36
331
7D
  0
MATERIAL
  5
12
102
{ACAD_XDICTIONARY
360
7979
102
}
102
{ACAD_REACTORS
330
10
102
}
330
10
100
AcDbMaterial
  1
ByBlock
  0
MATERIAL
  5
11
102
{ACAD_XDICTIONARY
360
7977
102
}
102
{ACAD_REACTORS
330
10
102
}
330
10
100
AcDbMaterial
  1
ByLayer
  0
MATERIAL
  5
13
102
{ACAD_XDICTIONARY
360
797B
102
}
102
{ACAD_REACTORS
330
10
102
}
330
10
100
AcDbMaterial
  1
Global
  0
MLINESTYLE
  5
2C
102
{ACAD_REACTORS
330
2B
102
}
330
2B
100
AcDbMlineStyle
  2
STANDARD
 70
     0
  3

 62
   256
 51
90.0
 52
90.0
 71
     2
 49
0.5
 62
   256
  6
BYLAYER
 49
-0.5
 62
   256
  6
BYLAYER
  0
ACDBPLACEHOLDER
  5
F
102
{ACAD_REACTORS
330
E
102
}
330
E
  0
TABLESTYLE
  5
31
102
{ACAD_XDICTIONARY
360
797D
102
}
102
{ACAD_REACTORS
330
30
102
}
330
30
100
AcDbTableStyle
  3
Standard
 70
     0
 71
     0
 40
0.06
 41
0.06
280
     0
281
     0
  7
Standard
140
0.18
170
     2
 62
     0
 63
     7
283
     0
274
    -2
284
     1
 64
     0
275
    -2
285
     1
 65
     0
276
    -2
286
     1
 66
     0
277
    -2
287
     1
 67
     0
278
    -2
288
     1
 68
     0
279
    -2
289
     1
 69
     0
  7
Standard
140
0.25
170
     5
 62
     0
 63
     7
283
     0
274
    -2
284
     1
 64
     0
275
    -2
285
     1
 65
     0
276
    -2
286
     1
 66
     0
277
    -2
287
     1
 67
     0
278
    -2
288
     1
 68
     0
279
    -2
289
     1
 69
     0
  7
Standard
140
0.18
170
     5
 62
     0
 63
     7
283
     0
274
    -2
284
     1
 64
     0
275
    -2
285
     1
 65
     0
276
    -2
286
     1
 66
     0
277
    -2
287
     1
 67
     0
278
    -2
288
     1
 68
     0
279
    -2
289
     1
 69
     0
  0
VISUALSTYLE
  5
1A
102
{ACAD_REACTORS
330
14
102
}
330
14
100
AcDbVisualStyle
  2
2dWireframe
 70
     4
 71
     0
 72
     2
 73
     0
 90
        0
 40
-0.6
 41
-30.0
 62
     5
 63
     7
421
 16777215
 74
     1
 91
        4
 64
     7
 65
   257
 75
     1
175
     1
 42
1.0
 92
        0
 66
   257
 43
1.0
 76
     1
 77
     6
 78
     2
 67
     7
 79
     5
170
     0
171
     0
290
     0
174
     0
 93
        1
 44
0.0
173
     0
291
     0
 45
0.0
1001
ACAD
1000
AcDbSavedByObjectVersion
1070
     0
  0
VISUALSTYLE
  5
1C
102
{ACAD_REACTORS
330
14
102
}
330
14
100
AcDbVisualStyle
  2
3D Hidden
 70
     6
 71
     1
 72
     2
 73
     2
 90
        0
 40
-0.6
 41
-30.0
 62
     5
 63
     7
421
 16777215
 74
     2
 91
        2
 64
     7
 65
   257
 75
     2
175
     1
 42
40.0
 92
        0
 66
   257
 43
1.0
 76
     1
 77
     6
 78
     2
 67
     7
 79
     3
170
     0
171
     0
290
     0
174
     0
 93
        1
 44
0.0
173
     0
291
     0
 45
0.0
1001
ACAD
1000
AcDbSavedByObjectVersion
1070
     0
  0
VISUALSTYLE
  5
1B
102
{ACAD_REACTORS
330
14
102
}
330
14
100
AcDbVisualStyle
  2
3dWireframe
 70
     5
 71
     0
 72
     2
 73
     0
 90
        0
 40
-0.6
 41
-30.0
 62
     5
 63
     7
421
 16777215
 74
     1
 91
        4
 64
     7
 65
   257
 75
     1
175
     1
 42
1.0
 92
        0
 66
   257
 43
1.0
 76
     1
 77
     6
 78
     2
 67
     7
 79
     5
170
     0
171
     0
290
     0
174
     0
 93
        1
 44
0.0
173
     0
291
     0
 45
0.0
1001
ACAD
1000
AcDbSavedByObjectVersion
1070
     0
  0
VISUALSTYLE
  5
19
102
{ACAD_REACTORS
330
14
102
}
330
14
100
AcDbVisualStyle
  2
Basic
 70
     7
 71
     1
 72
     0
 73
     1
 90
        0
 40
-0.6
 41
-30.0
 62
     5
 63
     7
421
 16777215
 74
     0
 91
        4
 64
     7
 65
   257
 75
     1
175
     1
 42
1.0
 92
        8
 66
     7
 43
1.0
 76
     1
 77
     6
 78
     2
 67
     7
 79
     5
170
     0
171
     0
290
     0
174
     0
 93
        1
 44
0.0
173
     0
291
     1
 45
0.0
1001
ACAD
1000
AcDbSavedByObjectVersion
1070
     0
  0
VISUALSTYLE
  5
20
102
{ACAD_REACTORS
330
14
102
}
330
14
100
AcDbVisualStyle
  2
Brighten
 70
    12
 71
     2
 72
     2
 73
     0
 90
        0
 40
-0.6
 41
-30.0
 62
     5
 63
     7
421
 16777215
 74
     1
 91
        4
 64
     7
 65
   257
 75
     1
175
     1
 42
1.0
 92
        8
 66
     7
 43
1.0
 76
     1
 77
     6
 78
     2
 67
     7
 79
     5
170
     0
171
     0
290
     0
174
     0
 93
        1
 44
50.0
173
     0
291
     1
 45
0.0
1001
ACAD
1000
AcDbSavedByObjectVersion
1070
     0
  0
VISUALSTYLE
  5
24
102
{ACAD_REACTORS
330
14
102
}
330
14
100
AcDbVisualStyle
  2
ColorChange
 70
    16
 71
     2
 72
     2
 73
     3
 90
        0
 40
-0.6
 41
-30.0
 62
     5
 63
     8
421
  8421504
 74
     1
 91
        4
 64
     7
 65
   257
 75
     1
175
     1
 42
1.0
 92
        8
 66
     8
424
  8421504
 43
1.0
 76
     1
 77
     6
 78
     2
 67
     7
 79
     5
170
     0
171
     0
290
     0
174
     0
 93
        1
 44
0.0
173
     0
291
     1
 45
0.0
1001
ACAD
1000
AcDbSavedByObjectVersion
1070
     0
  0
VISUALSTYLE
  5
1D
102
{ACAD_REACTORS
330
14
102
}
330
14
100
AcDbVisualStyle
  2
Conceptual
 70
     9
 71
     3
 72
     2
 73
     0
 90
        0
 40
-0.6
 41
-30.0
 62
     5
 63
     7
421
 16777215
 74
     2
 91
        2
 64
     7
 65
   257
 75
     1
175
     1
 42
40.0
 92
        8
 66
     7
 43
1.0
 76
     1
 77
     6
 78
     2
 67
     7
 79
     3
170
     0
171
     0
290
     0
174
     0
 93
        1
 44
0.0
173
     0
291
     0
 45
0.0
1001
ACAD
1000
AcDbSavedByObjectVersion
1070
     0
  0
VISUALSTYLE
  5
1F
102
{ACAD_REACTORS
330
14
102
}
330
14
100
AcDbVisualStyle
  2
Dim
 70
    11
 71
     2
 72
     2
 73
     0
 90
        0
 40
-0.6
 41
-30.0
 62
     5
 63
     7
421
 16777215
 74
     1
 91
        4
 64
     7
 65
   257
 75
     1
175
     1
 42
1.0
 92
        8
 66
     7
 43
1.0
 76
     1
 77
     6
 78
     2
 67
     7
 79
     5
170
     0
171
     0
290
     0
174
     0
 93
        1
 44
-50.0
173
     0
291
     1
 45
0.0
1001
ACAD
1000
AcDbSavedByObjectVersion
1070
     0
  0
VISUALSTYLE
  5
23
102
{ACAD_REACTORS
330
14
102
}
330
14
100
AcDbVisualStyle
  2
Facepattern
 70
    15
 71
     2
 72
     2
 73
     0
 90
        0
 40
-0.6
 41
-30.0
 62
     5
 63
     7
421
 16777215
 74
     1
 91
        4
 64
     7
 65
   257
 75
     1
175
     1
 42
1.0
 92
        8
 66
     7
 43
1.0
 76
     1
 77
     6
 78
     2
 67
     7
 79
     5
170
     0
171
     0
290
     0
174
     0
 93
        1
 44
0.0
173
     0
291
     1
 45
0.0
1001
ACAD
1000
AcDbSavedByObjectVersion
1070
     0
  0
VISUALSTYLE
  5
15
102
{ACAD_REACTORS
330
14
102
}
330
14
100
AcDbVisualStyle
  2
Flat
 70
     0
 71
     2
 72
     1
 73
     1
 90
        2
 40
-0.6
 41
30.0
 62
     5
 63
     7
421
 16777215
 74
     0
 91
        4
 64
     7
 65
   257
 75
     1
175
     1
 42
1.0
 92
        8
 66
     7
 43
1.0
 76
     1
 77
     6
 78
     2
 67
     7
 79
     5
170
     0
171
     0
290
     0
174
     0
 93
       13
 44
0.0
173
     0
291
     1
 45
0.0
1001
ACAD
1000
AcDbSavedByObjectVersion
1070
     0
  0
VISUALSTYLE
  5
16
102
{ACAD_REACTORS
330
14
102
}
330
14
100
AcDbVisualStyle
  2
FlatWithEdges
 70
     1
 71
     2
 72
     1
 73
     1
 90
        2
 40
-0.6
 41
30.0
 62
     5
 63
     7
421
 16777215
 74
     1
 91
        4
 64
     7
 65
   257
 75
     1
175
     1
 42
1.0
 92
        0
 66
   257
 43
1.0
 76
     1
 77
     6
 78
     2
 67
     7
 79
     5
170
     0
171
     0
290
     0
174
     0
 93
       13
 44
0.0
173
     0
291
     1
 45
0.0
1001
ACAD
1000
AcDbSavedByObjectVersion
1070
     0
  0
VISUALSTYLE
  5
17
102
{ACAD_REACTORS
330
14
102
}
330
14
100
AcDbVisualStyle
  2
Gouraud
 70
     2
 71
     2
 72
     2
 73
     1
 90
        2
 40
-0.6
 41
30.0
 62
     5
 63
     7
421
 16777215
 74
     0
 91
        4
 64
     7
 65
   257
 75
     1
175
     1
 42
1.0
 92
        0
 66
     7
 43
1.0
 76
     1
 77
     6
 78
     2
 67
     7
 79
     5
170
     0
171
     0
290
     0
174
     0
 93
       13
 44
0.0
173
     0
291
     1
 45
0.0
1001
ACAD
1000
AcDbSavedByObjectVersion
1070
     0
  0
VISUALSTYLE
  5
18
102
{ACAD_REACTORS
330
14
102
}
330
14
100
AcDbVisualStyle
  2
GouraudWithEdges
 70
     3
 71
     2
 72
     2
 73
     1
 90
        2
 40
-0.6
 41
30.0
 62
     5
 63
     7
421
 16777215
 74
     1
 91
        4
 64
     7
 65
   257
 75
     1
175
     1
 42
1.0
 92
        0
 66
   257
 43
1.0
 76
     1
 77
     6
 78
     2
 67
     7
 79
     5
170
     0
171
     0
290
     0
174
     0
 93
       13
 44
0.0
173
     0
291
     1
 45
0.0
1001
ACAD
1000
AcDbSavedByObjectVersion
1070
     0
  0
VISUALSTYLE
  5
22
102
{ACAD_REACTORS
330
14
102
}
330
14
100
AcDbVisualStyle
  2
Linepattern
 70
    14
 71
     2
 72
     2
 73
     0
 90
        0
 40
-0.6
 41
-30.0
 62
     5
 63
     7
421
 16777215
 74
     1
 91
        4
 64
     7
 65
   257
 75
     7
175
     7
 42
1.0
 92
        8
 66
     7
 43
1.0
 76
     1
 77
     6
 78
     2
 67
     7
 79
     5
170
     0
171
     0
290
     0
174
     0
 93
        1
 44
0.0
173
     0
291
     1
 45
0.0
1001
ACAD
1000
AcDbSavedByObjectVersion
1070
     0
  0
VISUALSTYLE
  5
1E
102
{ACAD_REACTORS
330
14
102
}
330
14
100
AcDbVisualStyle
  2
Realistic
 70
     8
 71
     2
 72
     2
 73
     0
 90
        0
 40
-0.6
 41
-30.0
 62
     5
 63
     7
421
 16777215
 74
     1
 91
        0
 64
     7
 65
   257
 75
     1
175
     1
 42
1.0
 92
        8
 66
     8
424
  7895160
 43
1.0
 76
     1
 77
     6
 78
     2
 67
     7
 79
     5
170
     0
171
     0
290
     0
174
     0
 93
       13
 44
0.0
173
     0
291
     0
 45
0.0
1001
ACAD
1000
AcDbSavedByObjectVersion
1070
     0
  0
VISUALSTYLE
  5
21
102
{ACAD_REACTORS
330
14
102
}
330
14
100
AcDbVisualStyle
  2
Thicken
 70
    13
 71
     2
 72
     2
 73
     0
 90
        0
 40
-0.6
 41
-30.0
 62
     5
 63
     7
421
 16777215
 74
     1
 91
        4
 64
     7
 65
   257
 75
     1
175
     1
 42
1.0
 92
       12
 66
     7
 43
1.0
 76
     1
 77
     6
 78
     2
 67
     7
 79
     5
170
     0
171
     0
290
     0
174
     0
 93
        1
 44
0.0
173
     0
291
     1
 45
0.0
1001
ACAD
1000
AcDbSavedByObjectVersion
1070
     0
  0
DICTIONARYVAR
  5
796A
102
{ACAD_REACTORS
330
7969
102
}
330
7969
100
DictionaryVariables
280
     0
  1
STANDARD
  0
DICTIONARYVAR
  5
7975
102
{ACAD_REACTORS
330
7969
102
}
330
7969
100
DictionaryVariables
280
     0
  1
1.570796
  0
DICTIONARYVAR
  5
7976
102
{ACAD_REACTORS
330
7969
102
}
330
7969
100
DictionaryVariables
280
     0
  1
1.570796
  0
DICTIONARY
  5
7979
330
12
100
AcDbDictionary
280
     1
281
     1
  3
ACAD_XREC_ROUNDTRIP
360
797A
  0
DICTIONARY
  5
7977
330
11
100
AcDbDictionary
280
     1
281
     1
  3
ACAD_XREC_ROUNDTRIP
360
7978
  0
DICTIONARY
  5
797B
330
13
100
AcDbDictionary
280
     1
281
     1
  3
ACAD_XREC_ROUNDTRIP
360
797C
  0
DICTIONARY
  5
797D
330
31
100
AcDbDictionary
280
     1
281
     1
  3
ACAD_XREC_ROUNDTRIP
360
797E
  0
XRECORD
  5
797A
102
{ACAD_REACTORS
330
7979
102
}
330
7979
100
AcDbXrecord
280
     1
102
MATERIAL
148
0.0
149
0.0
149
0.0
 93
        0
 94
       63
282
     0
 72
     1
 77
     1
171
     1
175
     1
179
     1
273
     0
  0
XRECORD
  5
7978
102
{ACAD_REACTORS
330
7977
102
}
330
7977
100
AcDbXrecord
280
     1
102
MATERIAL
148
0.0
149
0.0
149
0.0
 93
        0
 94
       63
282
     0
 72
     1
 77
     1
171
     1
175
     1
179
     1
273
     0
  0
XRECORD
  5
797C
102
{ACAD_REACTORS
330
797B
102
}
330
797B
100
AcDbXrecord
280
     1
102
MATERIAL
148
0.0
149
0.0
149
0.0
 93
        0
 94
       63
282
     0
 72
     1
 77
     1
171
     1
175
     1
179
     1
273
     0
  0
XRECORD
  5
797E
102
{ACAD_REACTORS
330
797D
102
}
330
797D
100
AcDbXrecord
280
     1
102
ACAD_ROUNDTRIP_PRE2007_TABLESTYLE
 90
      512
 91
        0
  1

 92
      512
 93
        0
  2

 94
      512
 95
        0
  3

  0
ENDSEC
  0
EOF
