  0
SECTION
  2
HEADER
  9
$ACADVER
  1
AC1015
  9
$ACADMAINTVER
 70
    20
  9
$DWGCODEPAGE
  3
ANSI_1252
  9
$INSBASE
 10
0.0
 20
0.0
 30
0.0
  9
$EXTMIN
 10
-5.7800073032721
 20
2.165299999999847
 30
0.0
  9
$EXTMAX
 10
93.32753662715305
 20
74.75530000000017
 30
0.0
  9
$LIMMIN
 10
0.0
 20
0.0
  9
$LIMMAX
 10
12.0
 20
9.0
  9
$ORTHOMODE
 70
     1
  9
$REGENMODE
 70
     1
  9
$FILLMODE
 70
     1
  9
$QTEXTMODE
 70
     0
  9
$MIRRTEXT
 70
     0
  9
$LTSCALE
 40
1.0
  9
$ATTMODE
 70
     1
  9
$TEXTSIZE
 40
0.2
  9
$TRACEWID
 40
0.05
  9
$TEXTSTYLE
  7
Standard
  9
$CLAYER
  8
0
  9
$CELTYPE
  6
CONTINUOUS
  9
$CECOLOR
 62
   256
  9
$CELTSCALE
 40
1.0
  9
$DISPSILH
 70
     0
  9
$DIMSCALE
 40
1.0
  9
$DIMASZ
 40
0.18
  9
$DIMEXO
 40
0.0625
  9
$DIMDLI
 40
0.38
  9
$DIMRND
 40
0.0
  9
$DIMDLE
 40
0.0
  9
$DIMEXE
 40
0.18
  9
$DIMTP
 40
0.0
  9
$DIMTM
 40
0.0
  9
$DIMTXT
 40
0.18
  9
$DIMCEN
 40
0.09
  9
$DIMTSZ
 40
0.0
  9
$DIMTOL
 70
     0
  9
$DIMLIM
 70
     0
  9
$DIMTIH
 70
     1
  9
$DIMTOH
 70
     1
  9
$DIMSE1
 70
     0
  9
$DIMSE2
 70
     0
  9
$DIMTAD
 70
     0
  9
$DIMZIN
 70
     0
  9
$DIMBLK
  1

  9
$DIMASO
 70
     1
  9
$DIMSHO
 70
     1
  9
$DIMPOST
  1

  9
$DIMAPOST
  1

  9
$DIMALT
 70
     0
  9
$DIMALTD
 70
     2
  9
$DIMALTF
 40
25.4
  9
$DIMLFAC
 40
1.0
  9
$DIMTOFL
 70
     0
  9
$DIMTVP
 40
0.0
  9
$DIMTIX
 70
     0
  9
$DIMSOXD
 70
     0
  9
$DIMSAH
 70
     0
  9
$DIMBLK1
  1

  9
$DIMBLK2
  1

  9
$DIMSTYLE
  2
Standard
  9
$DIMCLRD
 70
     0
  9
$DIMCLRE
 70
     0
  9
$DIMCLRT
 70
     0
  9
$DIMTFAC
 40
1.0
  9
$DIMGAP
 40
0.09
  9
$DIMJUST
 70
     0
  9
$DIMSD1
 70
     0
  9
$DIMSD2
 70
     0
  9
$DIMTOLJ
 70
     1
  9
$DIMTZIN
 70
     0
  9
$DIMALTZ
 70
     0
  9
$DIMALTTZ
 70
     0
  9
$DIMUPT
 70
     0
  9
$DIMDEC
 70
     4
  9
$DIMTDEC
 70
     4
  9
$DIMALTU
 70
     2
  9
$DIMALTTD
 70
     2
  9
$DIMTXSTY
  7
Standard
  9
$DIMAUNIT
 70
     0
  9
$DIMADEC
 70
     0
  9
$DIMALTRND
 40
0.0
  9
$DIMAZIN
 70
     0
  9
$DIMDSEP
 70
    46
  9
$DIMATFIT
 70
     3
  9
$DIMFRAC
 70
     0
  9
$DIMLDRBLK
  1

  9
$DIMLUNIT
 70
     2
  9
$DIMLWD
 70
    -2
  9
$DIMLWE
 70
    -2
  9
$DIMTMOVE
 70
     0
  9
$LUNITS
 70
     2
  9
$LUPREC
 70
     4
  9
$SKETCHINC
 40
0.1
  9
$FILLETRAD
 40
0.0
  9
$AUNITS
 70
     0
  9
$AUPREC
 70
     0
  9
$MENU
  1
.
  9
$ELEVATION
 40
0.0
  9
$PELEVATION
 40
0.0
  9
$THICKNESS
 40
0.0
  9
$LIMCHECK
 70
     0
  9
$CHAMFERA
 40
0.0
  9
$CHAMFERB
 40
0.0
  9
$CHAMFERC
 40
0.0
  9
$CHAMFERD
 40
0.0
  9
$SKPOLY
 70
     0
  9
$TDCREATE
 40
2458931.050542905
  9
$TDUCREATE
 40
2458931.008876239
  9
$TDUPDATE
 40
2458931.415051991
  9
$TDUUPDATE
 40
2458931.373385324
  9
$TDINDWG
 40
0.0323117130
  9
$TDUSRTIMER
 40
0.0323117130
  9
$USRTIMER
 70
     1
  9
$ANGBASE
 50
0.0
  9
$ANGDIR
 70
     0
  9
$PDMODE
 70
     0
  9
$PDSIZE
 40
0.0
  9
$PLINEWID
 40
0.0
  9
$SPLFRAME
 70
     0
  9
$SPLINETYPE
 70
     6
  9
$SPLINESEGS
 70
     8
  9
$HANDSEED
  5
37F8
  9
$SURFTAB1
 70
     6
  9
$SURFTAB2
 70
     6
  9
$SURFTYPE
 70
     6
  9
$SURFU
 70
     6
  9
$SURFV
 70
     6
  9
$UCSBASE
  2

  9
$UCSNAME
  2

  9
$UCSORG
 10
0.0
 20
0.0
 30
0.0
  9
$UCSXDIR
 10
1.0
 20
0.0
 30
0.0
  9
$UCSYDIR
 10
0.0
 20
1.0
 30
0.0
  9
$UCSORTHOREF
  2

  9
$UCSORTHOVIEW
 70
     0
  9
$UCSORGTOP
 10
0.0
 20
0.0
 30
0.0
  9
$UCSORGBOTTOM
 10
0.0
 20
0.0
 30
0.0
  9
$UCSORGLEFT
 10
0.0
 20
0.0
 30
0.0
  9
$UCSORGRIGHT
 10
0.0
 20
0.0
 30
0.0
  9
$UCSORGFRONT
 10
0.0
 20
0.0
 30
0.0
  9
$UCSORGBACK
 10
0.0
 20
0.0
 30
0.0
  9
$PUCSBASE
  2

  9
$PUCSNAME
  2

  9
$PUCSORG
 10
0.0
 20
0.0
 30
0.0
  9
$PUCSXDIR
 10
1.0
 20
0.0
 30
0.0
  9
$PUCSYDIR
 10
0.0
 20
1.0
 30
0.0
  9
$PUCSORTHOREF
  2

  9
$PUCSORTHOVIEW
 70
     0
  9
$PUCSORGTOP
 10
0.0
 20
0.0
 30
0.0
  9
$PUCSORGBOTTOM
 10
0.0
 20
0.0
 30
0.0
  9
$PUCSORGLEFT
 10
0.0
 20
0.0
 30
0.0
  9
$PUCSORGRIGHT
 10
0.0
 20
0.0
 30
0.0
  9
$PUCSORGFRONT
 10
0.0
 20
0.0
 30
0.0
  9
$PUCSORGBACK
 10
0.0
 20
0.0
 30
0.0
  9
$USERI1
 70
     0
  9
$USERI2
 70
     0
  9
$USERI3
 70
     0
  9
$USERI4
 70
     0
  9
$USERI5
 70
     0
  9
$USERR1
 40
0.0
  9
$USERR2
 40
0.0
  9
$USERR3
 40
0.0
  9
$USERR4
 40
0.0
  9
$USERR5
 40
0.0
  9
$WORLDVIEW
 70
     1
  9
$SHADEDGE
 70
     3
  9
$SHADEDIF
 70
    70
  9
$TILEMODE
 70
     1
  9
$MAXACTVP
 70
    64
  9
$PINSBASE
 10
0.0
 20
0.0
 30
0.0
  9
$PLIMCHECK
 70
     0
  9
$PEXTMIN
 10
1.000000000000000E+20
 20
1.000000000000000E+20
 30
1.000000000000000E+20
  9
$PEXTMAX
 10
-1.000000000000000E+20
 20
-1.000000000000000E+20
 30
-1.000000000000000E+20
  9
$PLIMMIN
 10
0.0
 20
0.0
  9
$PLIMMAX
 10
12.0
 20
9.0
  9
$UNITMODE
 70
     0
  9
$VISRETAIN
 70
     1
  9
$PLINEGEN
 70
     0
  9
$PSLTSCALE
 70
     1
  9
$TREEDEPTH
 70
  3020
  9
$CMLSTYLE
  2
Standard
  9
$CMLJUST
 70
     0
  9
$CMLSCALE
 40
1.0
  9
$PROXYGRAPHICS
 70
     1
  9
$MEASUREMENT
 70
     0
  9
$CELWEIGHT
370
    -1
  9
$ENDCAPS
280
     0
  9
$JOINSTYLE
280
     0
  9
$LWDISPLAY
290
     0
  9
$INSUNITS
 70
     0
  9
$HYPERLINKBASE
  1

  9
$STYLESHEET
  1

  9
$XEDIT
290
     1
  9
$CEPSNTYPE
380
     0
  9
$PSTYLEMODE
290
     1
  9
$FINGERPRINTGUID
  2
{5B7998B8-3BDE-40AC-AFEA-CD62A67BBDE3}
  9
$VERSIONGUID
  2
{C496857F-FF8C-41E9-9164-50A3358B12C2}
  9
$EXTNAMES
290
     1
  9
$PSVPSCALE
 40
0.0
  9
$OLESTARTUP
290
     0
  0
ENDSEC
  0
SECTION
  2
CLASSES
  0
CLASS
  1
ACDBDICTIONARYWDFLT
  2
AcDbDictionaryWithDefault
  3
ObjectDBX Classes
 90
        0
280
     0
281
     0
  0
CLASS
  1
MATERIAL
  2
AcDbMaterial
  3
ObjectDBX Classes
 90
     1024
280
     0
281
     0
  0
CLASS
  1
VISUALSTYLE
  2
AcDbVisualStyle
  3
ObjectDBX Classes
 90
     4095
280
     0
281
     0
  0
CLASS
  1
TABLESTYLE
  2
AcDbTableStyle
  3
ObjectDBX Classes
 90
     4095
280
     0
281
     0
  0
CLASS
  1
DICTIONARYVAR
  2
AcDbDictionaryVar
  3
ObjectDBX Classes
 90
        0
280
     0
281
     0
  0
CLASS
  1
ACDBPLACEHOLDER
  2
AcDbPlaceHolder
  3
ObjectDBX Classes
 90
        0
280
     0
281
     0
  0
CLASS
  1
LAYOUT
  2
AcDbLayout
  3
ObjectDBX Classes
 90
        0
280
     0
281
     0
  0
ENDSEC
  0
SECTION
  2
TABLES
  0
TABLE
  2
VPORT
  5
8
330
0
100
AcDbSymbolTable
 70
     1
  0
VPORT
  5
3D
330
8
100
AcDbSymbolTableRecord
100
AcDbViewportTableRecord
  2
*Active
 70
     0
 10
0.0
 20
0.0
 11
1.0
 21
1.0
 12
51.78180528178441
 22
33.8639935353376
 13
0.0
 23
0.0
 14
1.0
 24
1.0
 15
0.0
 25
0.0
 16
0.0
 26
0.0
 36
1.0
 17
0.0
 27
0.0
 37
0.0
 40
93.05546181816593
 41
1.759202453987729
 42
50.0
 43
0.0
 44
0.0
 50
0.0
 51
0.0
 71
     0
 72
   100
 73
     1
 74
     1
 75
     0
 76
     0
 77
     0
 78
     0
281
     0
 65
     1
110
0.0
120
0.0
130
0.0
111
1.0
121
0.0
131
0.0
112
0.0
122
1.0
132
0.0
 79
     0
146
0.0
  0
ENDTAB
  0
TABLE
  2
LTYPE
  5
5
330
0
100
AcDbSymbolTable
 70
     3
  0
LTYPE
  5
28
330
5
100
AcDbSymbolTableRecord
100
AcDbLinetypeTableRecord
  2
ByBlock
 70
     0
  3

 72
    65
 73
     0
 40
0.0
  0
LTYPE
  5
29
330
5
100
AcDbSymbolTableRecord
100
AcDbLinetypeTableRecord
  2
ByLayer
 70
     0
  3

 72
    65
 73
     0
 40
0.0
  0
LTYPE
  5
2A
330
5
100
AcDbSymbolTableRecord
100
AcDbLinetypeTableRecord
  2
CONTINUOUS
 70
     0
  3
Solid line
 72
    65
 73
     0
 40
0.0
  0
LTYPE
  5
2FCA
330
5
100
AcDbSymbolTableRecord
100
AcDbLinetypeTableRecord
  2
CHAIN
 70
     0
  3
Chain ____ _ ____ _ ____ _ ____ _ ____ _ ____
 72
    65
 73
     4
 40
0.3543
 49
0.2362
 74
     0
 49
-0.0295
 74
     0
 49
0.0591
 74
     0
 49
-0.0295
 74
     0
  0
ENDTAB
  0
TABLE
  2
LAYER
  5
2
330
0
100
AcDbSymbolTable
 70
     7
  0
LAYER
  5
25
330
2
100
AcDbSymbolTableRecord
100
AcDbLayerTableRecord
  2
0
 70
     0
 62
     7
  6
CONTINUOUS
370
    -3
390
F
  0
LAYER
  5
3A
330
2
100
AcDbSymbolTableRecord
100
AcDbLayerTableRecord
  2
20
 70
     0
 62
     7
  6
CONTINUOUS
370
    -3
390
F
  0
LAYER
  5
3B
330
2
100
AcDbSymbolTableRecord
100
AcDbLayerTableRecord
  2
21
 70
     0
 62
   253
  6
CONTINUOUS
370
    -3
390
F
  0
LAYER
  5
27BB
330
2
100
AcDbSymbolTableRecord
100
AcDbLayerTableRecord
  2
Defpoints
 70
     0
 62
     7
  6
CONTINUOUS
290
     0
370
    -3
390
F
  0
LAYER
  5
2FCB
330
2
100
AcDbSymbolTableRecord
100
AcDbLayerTableRecord
  2
Centro(ISO)
 70
     0
 62
   179
  6
CHAIN
370
    25
390
F
  0
LAYER
  5
2FCC
330
2
100
AcDbSymbolTableRecord
100
AcDbLayerTableRecord
  2
Spigoli tangenti visibili(ISO)
 70
     0
 62
   251
  6
CONTINUOUS
370
    30
390
F
  0
LAYER
  5
2FCD
330
2
100
AcDbSymbolTableRecord
100
AcDbLayerTableRecord
  2
Spigoli visibili(ISO)
 70
     0
 62
     7
  6
CONTINUOUS
370
    50
390
F
  0
ENDTAB
  0
TABLE
  2
STYLE
  5
3
330
0
100
AcDbSymbolTable
 70
     2
  0
STYLE
  5
26
330
3
100
AcDbSymbolTableRecord
100
AcDbTextStyleTableRecord
  2
Standard
 70
     0
 40
0.0
 41
1.0
 50
0.0
 71
     0
 42
0.2
  3
txt
  4

  0
STYLE
  5
2FCE
330
3
100
AcDbSymbolTableRecord
100
AcDbTextStyleTableRecord
  2
DEFAULT-ISO~0
 70
     0
 40
0.0
 41
1.0
 50
0.0
 71
     0
 42
0.2
  3
arial.ttf
  4

1001
ACAD
1000
Arial
1071
      256
  0
ENDTAB
  0
TABLE
  2
VIEW
  5
6
330
0
100
AcDbSymbolTable
 70
     0
  0
ENDTAB
  0
TABLE
  2
UCS
  5
7
330
0
100
AcDbSymbolTable
 70
     0
  0
ENDTAB
  0
TABLE
  2
APPID
  5
9
330
0
100
AcDbSymbolTable
 70
     1
  0
APPID
  5
27
330
9
100
AcDbSymbolTableRecord
100
AcDbRegAppTableRecord
  2
ACAD
 70
     0
  0
ENDTAB
  0
TABLE
  2
DIMSTYLE
  5
A
330
0
100
AcDbSymbolTable
 70
     3
100
AcDbDimStyleTable
 71
     1
340
27B2
  0
DIMSTYLE
105
27B2
330
A
100
AcDbSymbolTableRecord
100
AcDbDimStyleTableRecord
  2
Standard
 70
     0
340
26
  0
DIMSTYLE
105
2FCF
330
A
100
AcDbSymbolTableRecord
100
AcDbDimStyleTableRecord
  2
DEFAULT-ISO-Metodo 1b
 70
     0
 41
2.5
 42
0.0
 43
6.0
 44
3.174999999999999
 45
0.00000001
 46
10.0
 73
     0
 77
     1
 78
     8
 79
     2
140
3.5
143
0.03937
146
0.7142857142857144
147
0.762
171
     3
176
     2
177
     2
178
     6
179
     2
271
     2
272
     2
274
     3
278
    44
284
     8
286
     8
340
2FCE
371
    25
372
    25
  0
ENDTAB
  0
TABLE
  2
BLOCK_RECORD
  5
1
330
0
100
AcDbSymbolTable
 70
    16
  0
BLOCK_RECORD
  5
36
330
1
100
AcDbSymbolTableRecord
100
AcDbBlockTableRecord
  2
*Model_Space
340
39
  0
BLOCK_RECORD
  5
32
330
1
100
AcDbSymbolTableRecord
100
AcDbBlockTableRecord
  2
*Paper_Space
340
35
  0
BLOCK_RECORD
  5
3E
330
1
100
AcDbSymbolTableRecord
100
AcDbBlockTableRecord
  2
RECT
340
0
  0
BLOCK_RECORD
  5
42
330
1
100
AcDbSymbolTableRecord
100
AcDbBlockTableRecord
  2
PIE
340
0
  0
BLOCK_RECORD
  5
4A
330
1
100
AcDbSymbolTableRecord
100
AcDbBlockTableRecord
  2
OCTAGONP
340
0
  0
BLOCK_RECORD
  5
59
330
1
100
AcDbSymbolTableRecord
100
AcDbBlockTableRecord
  2
SQUAREP
340
0
  0
BLOCK_RECORD
  5
5D
330
1
100
AcDbSymbolTableRecord
100
AcDbBlockTableRecord
  2
ROUNDP
340
0
  0
BLOCK_RECORD
  5
65
330
1
100
AcDbSymbolTableRecord
100
AcDbBlockTableRecord
  2
ANNULUSP
340
0
  0
BLOCK_RECORD
  5
6D
330
1
100
AcDbSymbolTableRecord
100
AcDbBlockTableRecord
  2
THERMALP
340
0
  0
BLOCK_RECORD
  5
A0
330
1
100
AcDbSymbolTableRecord
100
AcDbBlockTableRecord
  2
OCTAGONV
340
0
  0
BLOCK_RECORD
  5
AF
330
1
100
AcDbSymbolTableRecord
100
AcDbBlockTableRecord
  2
SQUAREV
340
0
  0
BLOCK_RECORD
  5
B3
330
1
100
AcDbSymbolTableRecord
100
AcDbBlockTableRecord
  2
ROUNDV
340
0
  0
BLOCK_RECORD
  5
BB
330
1
100
AcDbSymbolTableRecord
100
AcDbBlockTableRecord
  2
ANNULUSV
340
0
  0
BLOCK_RECORD
  5
C3
330
1
100
AcDbSymbolTableRecord
100
AcDbBlockTableRecord
  2
THERMALV
340
0
  0
BLOCK_RECORD
  5
F6
330
1
100
AcDbSymbolTableRecord
100
AcDbBlockTableRecord
  2
LONGP100
340
0
  0
ENDTAB
  0
ENDSEC
  0
SECTION
  2
BLOCKS
  0
BLOCK
  5
37
330
36
100
AcDbEntity
  8
0
100
AcDbBlockBegin
  2
*Model_Space
 70
     0
 10
0.0
 20
0.0
 30
0.0
  3
*Model_Space
  1

  0
ENDBLK
  5
38
330
36
100
AcDbEntity
  8
0
100
AcDbBlockEnd
  0
BLOCK
  5
33
330
32
100
AcDbEntity
 67
     1
  8
0
100
AcDbBlockBegin
  2
*Paper_Space
 70
     0
 10
0.0
 20
0.0
 30
0.0
  3
*Paper_Space
  1

  0
ENDBLK
  5
34
330
32
100
AcDbEntity
 67
     1
  8
0
100
AcDbBlockEnd
  0
BLOCK
  5
3F
330
3E
100
AcDbEntity
  8
0
100
AcDbBlockBegin
  2
RECT
 70
     0
 10
0.0
 20
0.0
 30
0.0
  3
RECT
  1

  0
SOLID
  5
40
330
3E
100
AcDbEntity
  8
0
100
AcDbTrace
 10
-0.5
 20
-0.5
 30
0.0
 11
0.5
 21
-0.5
 31
0.0
 12
-0.5
 22
0.5
 32
0.0
 13
0.5
 23
0.5
 33
0.0
  0
ENDBLK
  5
41
330
3E
100
AcDbEntity
  8
0
100
AcDbBlockEnd
  0
BLOCK
  5
43
330
42
100
AcDbEntity
  8
0
100
AcDbBlockBegin
  2
PIE
 70
     0
 10
0.0
 20
0.0
 30
0.0
  3
PIE
  1

  0
LWPOLYLINE
  5
44
330
42
100
AcDbEntity
  8
0
100
AcDbPolyline
 90
        3
 70
     0
 43
0.5
 10
0.0
 20
-0.25
 42
1.0
 10
0.0
 20
0.25
 42
1.0
 10
0.0
 20
-0.25
  0
ENDBLK
  5
49
330
42
100
AcDbEntity
  8
0
100
AcDbBlockEnd
  0
BLOCK
  5
4B
330
4A
100
AcDbEntity
  8
0
100
AcDbBlockBegin
  2
OCTAGONP
 70
     0
 10
0.0
 20
0.0
 30
0.0
  3
OCTAGONP
  1

  0
LWPOLYLINE
  5
4C
330
4A
100
AcDbEntity
  8
0
100
AcDbPolyline
 90
       10
 70
     0
 43
0.5
 10
-0.25
 20
-0.1036
 10
-0.25
 20
0.1036
 10
-0.1036
 20
0.25
 10
0.1036
 20
0.25
 10
0.25
 20
0.1036
 10
0.25
 20
-0.1036
 10
0.1036
 20
-0.25
 10
-0.1036
 20
-0.25
 10
-0.25
 20
-0.1036
 10
-0.25
 20
0.1036
  0
ENDBLK
  5
58
330
4A
100
AcDbEntity
  8
0
100
AcDbBlockEnd
  0
BLOCK
  5
5A
330
59
100
AcDbEntity
  8
0
100
AcDbBlockBegin
  2
SQUAREP
 70
     0
 10
0.0
 20
0.0
 30
0.0
  3
SQUAREP
  1

  0
SOLID
  5
5B
330
59
100
AcDbEntity
  8
0
100
AcDbTrace
 10
-0.5
 20
-0.5
 30
0.0
 11
0.5
 21
-0.5
 31
0.0
 12
-0.5
 22
0.5
 32
0.0
 13
0.5
 23
0.5
 33
0.0
  0
ENDBLK
  5
5C
330
59
100
AcDbEntity
  8
0
100
AcDbBlockEnd
  0
BLOCK
  5
5E
330
5D
100
AcDbEntity
  8
0
100
AcDbBlockBegin
  2
ROUNDP
 70
     0
 10
0.0
 20
0.0
 30
0.0
  3
ROUNDP
  1

  0
LWPOLYLINE
  5
5F
330
5D
100
AcDbEntity
  8
0
100
AcDbPolyline
 90
        3
 70
     0
 43
0.5
 10
0.0
 20
-0.25
 42
1.0
 10
0.0
 20
0.25
 42
1.0
 10
0.0
 20
-0.25
  0
ENDBLK
  5
64
330
5D
100
AcDbEntity
  8
0
100
AcDbBlockEnd
  0
BLOCK
  5
66
330
65
100
AcDbEntity
  8
0
100
AcDbBlockBegin
  2
ANNULUSP
 70
     0
 10
0.0
 20
0.0
 30
0.0
  3
ANNULUSP
  1

  0
LWPOLYLINE
  5
67
330
65
100
AcDbEntity
  8
0
100
AcDbPolyline
 90
        3
 70
     0
 43
0.5
 10
0.0
 20
-0.25
 42
1.0
 10
0.0
 20
0.25
 42
1.0
 10
0.0
 20
-0.25
  0
ENDBLK
  5
6C
330
65
100
AcDbEntity
  8
0
100
AcDbBlockEnd
  0
BLOCK
  5
6E
330
6D
100
AcDbEntity
  8
0
100
AcDbBlockBegin
  2
THERMALP
 70
     0
 10
0.0
 20
0.0
 30
0.0
  3
THERMALP
  1

  0
LWPOLYLINE
  5
6F
330
6D
100
AcDbEntity
  8
0
100
AcDbPolyline
 90
        2
 70
     0
 43
0.1
 10
-0.2379
 20
0.45
 10
0.2379
 20
0.45
  0
LWPOLYLINE
  5
73
330
6D
100
AcDbEntity
  8
0
100
AcDbPolyline
 90
        2
 70
     0
 43
0.05
 10
0.2379
 20
0.425
 42
1.0
 10
0.2379
 20
0.475
  0
LWPOLYLINE
  5
77
330
6D
100
AcDbEntity
  8
0
100
AcDbPolyline
 90
        2
 70
     0
 43
0.05
 10
-0.2379
 20
0.475
 42
1.0
 10
-0.2379
 20
0.425
  0
LWPOLYLINE
  5
7B
330
6D
100
AcDbEntity
  8
0
100
AcDbPolyline
 90
        2
 70
     0
 43
0.1
 10
0.45
 20
0.2379
 10
0.45
 20
-0.2379
  0
LWPOLYLINE
  5
7F
330
6D
100
AcDbEntity
  8
0
100
AcDbPolyline
 90
        2
 70
     0
 43
0.05
 10
0.425
 20
-0.2379
 42
1.0
 10
0.475
 20
-0.2379
  0
LWPOLYLINE
  5
83
330
6D
100
AcDbEntity
  8
0
100
AcDbPolyline
 90
        2
 70
     0
 43
0.05
 10
0.475
 20
0.2379
 42
1.0
 10
0.425
 20
0.2379
  0
LWPOLYLINE
  5
87
330
6D
100
AcDbEntity
  8
0
100
AcDbPolyline
 90
        2
 70
     0
 43
0.1
 10
0.2379
 20
-0.45
 10
-0.2379
 20
-0.45
  0
LWPOLYLINE
  5
8B
330
6D
100
AcDbEntity
  8
0
100
AcDbPolyline
 90
        2
 70
     0
 43
0.05
 10
-0.2379
 20
-0.425
 42
1.0
 10
-0.2379
 20
-0.475
  0
LWPOLYLINE
  5
8F
330
6D
100
AcDbEntity
  8
0
100
AcDbPolyline
 90
        2
 70
     0
 43
0.05
 10
0.2379
 20
-0.475
 42
1.0
 10
0.2379
 20
-0.425
  0
LWPOLYLINE
  5
93
330
6D
100
AcDbEntity
  8
0
100
AcDbPolyline
 90
        2
 70
     0
 43
0.1
 10
-0.45
 20
-0.2379
 10
-0.45
 20
0.2379
  0
LWPOLYLINE
  5
97
330
6D
100
AcDbEntity
  8
0
100
AcDbPolyline
 90
        2
 70
     0
 43
0.05
 10
-0.425
 20
0.2379
 42
1.0
 10
-0.475
 20
0.2379
  0
LWPOLYLINE
  5
9B
330
6D
100
AcDbEntity
  8
0
100
AcDbPolyline
 90
        2
 70
     0
 43
0.05
 10
-0.475
 20
-0.2379
 42
1.0
 10
-0.425
 20
-0.2379
  0
ENDBLK
  5
9F
330
6D
100
AcDbEntity
  8
0
100
AcDbBlockEnd
  0
BLOCK
  5
A1
330
A0
100
AcDbEntity
  8
0
100
AcDbBlockBegin
  2
OCTAGONV
 70
     0
 10
0.0
 20
0.0
 30
0.0
  3
OCTAGONV
  1

  0
LWPOLYLINE
  5
A2
330
A0
100
AcDbEntity
  8
0
100
AcDbPolyline
 90
       10
 70
     0
 43
0.5
 10
-0.25
 20
-0.1036
 10
-0.25
 20
0.1036
 10
-0.1036
 20
0.25
 10
0.1036
 20
0.25
 10
0.25
 20
0.1036
 10
0.25
 20
-0.1036
 10
0.1036
 20
-0.25
 10
-0.1036
 20
-0.25
 10
-0.25
 20
-0.1036
 10
-0.25
 20
0.1036
  0
ENDBLK
  5
AE
330
A0
100
AcDbEntity
  8
0
100
AcDbBlockEnd
  0
BLOCK
  5
B0
330
AF
100
AcDbEntity
  8
0
100
AcDbBlockBegin
  2
SQUAREV
 70
     0
 10
0.0
 20
0.0
 30
0.0
  3
SQUAREV
  1

  0
SOLID
  5
B1
330
AF
100
AcDbEntity
  8
0
100
AcDbTrace
 10
-0.5
 20
-0.5
 30
0.0
 11
0.5
 21
-0.5
 31
0.0
 12
-0.5
 22
0.5
 32
0.0
 13
0.5
 23
0.5
 33
0.0
  0
ENDBLK
  5
B2
330
AF
100
AcDbEntity
  8
0
100
AcDbBlockEnd
  0
BLOCK
  5
B4
330
B3
100
AcDbEntity
  8
0
100
AcDbBlockBegin
  2
ROUNDV
 70
     0
 10
0.0
 20
0.0
 30
0.0
  3
ROUNDV
  1

  0
LWPOLYLINE
  5
B5
330
B3
100
AcDbEntity
  8
0
100
AcDbPolyline
 90
        3
 70
     0
 43
0.5
 10
0.0
 20
-0.25
 42
1.0
 10
0.0
 20
0.25
 42
1.0
 10
0.0
 20
-0.25
  0
ENDBLK
  5
BA
330
B3
100
AcDbEntity
  8
0
100
AcDbBlockEnd
  0
BLOCK
  5
BC
330
BB
100
AcDbEntity
  8
0
100
AcDbBlockBegin
  2
ANNULUSV
 70
     0
 10
0.0
 20
0.0
 30
0.0
  3
ANNULUSV
  1

  0
LWPOLYLINE
  5
BD
330
BB
100
AcDbEntity
  8
0
100
AcDbPolyline
 90
        3
 70
     0
 43
0.5
 10
0.0
 20
-0.25
 42
1.0
 10
0.0
 20
0.25
 42
1.0
 10
0.0
 20
-0.25
  0
ENDBLK
  5
C2
330
BB
100
AcDbEntity
  8
0
100
AcDbBlockEnd
  0
BLOCK
  5
C4
330
C3
100
AcDbEntity
  8
0
100
AcDbBlockBegin
  2
THERMALV
 70
     0
 10
0.0
 20
0.0
 30
0.0
  3
THERMALV
  1

  0
LWPOLYLINE
  5
C5
330
C3
100
AcDbEntity
  8
0
100
AcDbPolyline
 90
        2
 70
     0
 43
0.1
 10
-0.2379
 20
0.45
 10
0.2379
 20
0.45
  0
LWPOLYLINE
  5
C9
330
C3
100
AcDbEntity
  8
0
100
AcDbPolyline
 90
        2
 70
     0
 43
0.05
 10
0.2379
 20
0.425
 42
1.0
 10
0.2379
 20
0.475
  0
LWPOLYLINE
  5
CD
330
C3
100
AcDbEntity
  8
0
100
AcDbPolyline
 90
        2
 70
     0
 43
0.05
 10
-0.2379
 20
0.475
 42
1.0
 10
-0.2379
 20
0.425
  0
LWPOLYLINE
  5
D1
330
C3
100
AcDbEntity
  8
0
100
AcDbPolyline
 90
        2
 70
     0
 43
0.1
 10
0.45
 20
0.2379
 10
0.45
 20
-0.2379
  0
LWPOLYLINE
  5
D5
330
C3
100
AcDbEntity
  8
0
100
AcDbPolyline
 90
        2
 70
     0
 43
0.05
 10
0.425
 20
-0.2379
 42
1.0
 10
0.475
 20
-0.2379
  0
LWPOLYLINE
  5
D9
330
C3
100
AcDbEntity
  8
0
100
AcDbPolyline
 90
        2
 70
     0
 43
0.05
 10
0.475
 20
0.2379
 42
1.0
 10
0.425
 20
0.2379
  0
LWPOLYLINE
  5
DD
330
C3
100
AcDbEntity
  8
0
100
AcDbPolyline
 90
        2
 70
     0
 43
0.1
 10
0.2379
 20
-0.45
 10
-0.2379
 20
-0.45
  0
LWPOLYLINE
  5
E1
330
C3
100
AcDbEntity
  8
0
100
AcDbPolyline
 90
        2
 70
     0
 43
0.05
 10
-0.2379
 20
-0.425
 42
1.0
 10
-0.2379
 20
-0.475
  0
LWPOLYLINE
  5
E5
330
C3
100
AcDbEntity
  8
0
100
AcDbPolyline
 90
        2
 70
     0
 43
0.05
 10
0.2379
 20
-0.475
 42
1.0
 10
0.2379
 20
-0.425
  0
LWPOLYLINE
  5
E9
330
C3
100
AcDbEntity
  8
0
100
AcDbPolyline
 90
        2
 70
     0
 43
0.1
 10
-0.45
 20
-0.2379
 10
-0.45
 20
0.2379
  0
LWPOLYLINE
  5
ED
330
C3
100
AcDbEntity
  8
0
100
AcDbPolyline
 90
        2
 70
     0
 43
0.05
 10
-0.425
 20
0.2379
 42
1.0
 10
-0.475
 20
0.2379
  0
LWPOLYLINE
  5
F1
330
C3
100
AcDbEntity
  8
0
100
AcDbPolyline
 90
        2
 70
     0
 43
0.05
 10
-0.475
 20
-0.2379
 42
1.0
 10
-0.425
 20
-0.2379
  0
ENDBLK
  5
F5
330
C3
100
AcDbEntity
  8
0
100
AcDbBlockEnd
  0
BLOCK
  5
F7
330
F6
100
AcDbEntity
  8
0
100
AcDbBlockBegin
  2
LONGP100
 70
     0
 10
0.0
 20
0.0
 30
0.0
  3
LONGP100
  1

  0
LWPOLYLINE
  5
F8
330
F6
100
AcDbEntity
  8
0
100
AcDbPolyline
 90
        2
 70
     0
 43
1.0
 10
-0.5
 20
0.0
 10
0.5
 20
0.0
  0
LWPOLYLINE
  5
FC
330
F6
100
AcDbEntity
  8
0
100
AcDbPolyline
 90
        2
 70
     0
 43
0.5
 10
0.5
 20
-0.25
 42
1.0
 10
0.5
 20
0.25
  0
LWPOLYLINE
  5
100
330
F6
100
AcDbEntity
  8
0
100
AcDbPolyline
 90
        2
 70
     0
 43
0.5
 10
-0.5
 20
0.25
 42
1.0
 10
-0.5
 20
-0.25
  0
ENDBLK
  5
104
330
F6
100
AcDbEntity
  8
0
100
AcDbBlockEnd
  0
ENDSEC
  0
SECTION
  2
ENTITIES
  0
LWPOLYLINE
  5
1436
330
36
100
AcDbEntity
  8
21
100
AcDbPolyline
 90
        3
 70
     0
 43
0.1524
 10
6.9851
 20
22.987
 42
1.0
 10
6.9851
 20
26.543
 42
1.0
 10
6.9851
 20
22.987
  0
LWPOLYLINE
  5
1548
330
36
100
AcDbEntity
  8
21
100
AcDbPolyline
 90
        3
 70
     0
 43
0.1524
 10
7.143699999999999
 20
31.4008
 42
1.0
 10
7.143699999999999
 20
34.9568
 42
1.0
 10
7.143699999999999
 20
31.4008
  0
LWPOLYLINE
  5
1782
330
36
100
AcDbEntity
  8
21
100
AcDbPolyline
 90
        2
 70
     0
 43
0.127
 10
17.7162
 20
20.5738
 10
57.7162
 20
20.5738
  0
LWPOLYLINE
  5
1786
330
36
100
AcDbEntity
  8
21
100
AcDbPolyline
 90
        2
 70
     0
 43
0.0635
 10
57.7162
 20
20.5421
 42
1.0
 10
57.7162
 20
20.6056
  0
LWPOLYLINE
  5
178A
330
36
100
AcDbEntity
  8
21
100
AcDbPolyline
 90
        2
 70
     0
 43
0.0635
 10
17.7162
 20
20.6056
 42
1.0
 10
17.7162
 20
20.5421
  0
LWPOLYLINE
  5
178E
330
36
100
AcDbEntity
  8
21
100
AcDbPolyline
 90
        2
 70
     0
 43
0.127
 10
17.7162
 20
20.5738
 10
17.7162
 20
24.5738
  0
LWPOLYLINE
  5
1792
330
36
100
AcDbEntity
  8
21
100
AcDbPolyline
 90
        2
 70
     0
 43
0.0635
 10
17.7479
 20
24.5738
 42
1.0
 10
17.6845
 20
24.5738
  0
LWPOLYLINE
  5
1796
330
36
100
AcDbEntity
  8
21
100
AcDbPolyline
 90
        2
 70
     0
 43
0.0635
 10
17.6845
 20
20.5738
 42
1.0
 10
17.7479
 20
20.5738
  0
LWPOLYLINE
  5
179A
330
36
100
AcDbEntity
  8
21
100
AcDbPolyline
 90
        2
 70
     0
 43
0.127
 10
21.7162
 20
28.5738
 10
53.7162
 20
28.5738
  0
LWPOLYLINE
  5
179E
330
36
100
AcDbEntity
  8
21
100
AcDbPolyline
 90
        2
 70
     0
 43
0.0635
 10
53.7162
 20
28.5421
 42
1.0
 10
53.7162
 20
28.6056
  0
LWPOLYLINE
  5
17A2
330
36
100
AcDbEntity
  8
21
100
AcDbPolyline
 90
        2
 70
     0
 43
0.0635
 10
21.7162
 20
28.6056
 42
1.0
 10
21.7162
 20
28.5421
  0
LWPOLYLINE
  5
17A6
330
36
100
AcDbEntity
  8
21
100
AcDbPolyline
 90
        2
 70
     0
 43
0.127
 10
57.7162
 20
24.5738
 10
57.7162
 20
20.5738
  0
LWPOLYLINE
  5
17AA
330
36
100
AcDbEntity
  8
21
100
AcDbPolyline
 90
        2
 70
     0
 43
0.0635
 10
57.6844
 20
20.5738
 42
1.0
 10
57.74799999999999
 20
20.5738
  0
LWPOLYLINE
  5
17AE
330
36
100
AcDbEntity
  8
21
100
AcDbPolyline
 90
        2
 70
     0
 43
0.0635
 10
57.74799999999999
 20
24.5738
 42
1.0
 10
57.6844
 20
24.5738
  0
LWPOLYLINE
  5
188A
330
36
100
AcDbEntity
  8
21
100
AcDbPolyline
 90
        2
 70
     0
 43
0.127
 10
21.7162
 20
28.5738
 42
0.4142000000000001
 10
17.7162
 20
24.5738
  0
LWPOLYLINE
  5
188E
330
36
100
AcDbEntity
  8
21
100
AcDbPolyline
 90
        2
 70
     0
 43
0.0635
 10
21.7162
 20
28.5421
 42
1.0
 10
21.7162
 20
28.6056
  0
LWPOLYLINE
  5
1892
330
36
100
AcDbEntity
  8
21
100
AcDbPolyline
 90
        2
 70
     0
 43
0.0635
 10
17.6845
 20
24.5738
 42
1.0
 10
17.7479
 20
24.5738
  0
LWPOLYLINE
  5
1896
330
36
100
AcDbEntity
  8
21
100
AcDbPolyline
 90
        2
 70
     0
 43
0.127
 10
57.7162
 20
24.5738
 42
0.4142000000000001
 10
53.7162
 20
28.5738
  0
LWPOLYLINE
  5
189A
330
36
100
AcDbEntity
  8
21
100
AcDbPolyline
 90
        2
 70
     0
 43
0.0635
 10
57.6844
 20
24.5738
 42
1.0
 10
57.74799999999999
 20
24.5738
  0
LWPOLYLINE
  5
189E
330
36
100
AcDbEntity
  8
21
100
AcDbPolyline
 90
        2
 70
     0
 43
0.0635
 10
53.7162
 20
28.6056
 42
1.0
 10
53.7162
 20
28.5421
  0
LWPOLYLINE
  5
18C6
330
36
100
AcDbEntity
  8
21
100
AcDbPolyline
 90
        2
 70
     0
 43
0.127
 10
17.7162
 20
7.5738
 10
17.7162
 20
11.5738
  0
LWPOLYLINE
  5
18CA
330
36
100
AcDbEntity
  8
21
100
AcDbPolyline
 90
        2
 70
     0
 43
0.0635
 10
17.7479
 20
11.5738
 42
1.0
 10
17.6845
 20
11.5738
  0
LWPOLYLINE
  5
18D2
330
36
100
AcDbEntity
  8
21
100
AcDbPolyline
 90
        2
 70
     0
 43
0.127
 10
21.7162
 20
15.5738
 10
53.7162
 20
15.5738
  0
LWPOLYLINE
  5
18D6
330
36
100
AcDbEntity
  8
21
100
AcDbPolyline
 90
        2
 70
     0
 43
0.0635
 10
53.7162
 20
15.542
 42
1.0
 10
53.7162
 20
15.6056
  0
LWPOLYLINE
  5
18DA
330
36
100
AcDbEntity
  8
21
100
AcDbPolyline
 90
        2
 70
     0
 43
0.0635
 10
21.7162
 20
15.6056
 42
1.0
 10
21.7162
 20
15.542
  0
LWPOLYLINE
  5
18DE
330
36
100
AcDbEntity
  8
21
100
AcDbPolyline
 90
        2
 70
     0
 43
0.127
 10
57.7162
 20
11.5738
 10
57.7162
 20
7.5738
  0
LWPOLYLINE
  5
18E6
330
36
100
AcDbEntity
  8
21
100
AcDbPolyline
 90
        2
 70
     0
 43
0.0635
 10
57.74799999999999
 20
11.5738
 42
1.0
 10
57.6844
 20
11.5738
  0
LWPOLYLINE
  5
19C2
330
36
100
AcDbEntity
  8
21
100
AcDbPolyline
 90
        2
 70
     0
 43
0.127
 10
21.7162
 20
15.5738
 42
0.4142000000000001
 10
17.7162
 20
11.5738
  0
LWPOLYLINE
  5
19C6
330
36
100
AcDbEntity
  8
21
100
AcDbPolyline
 90
        2
 70
     0
 43
0.0635
 10
21.7162
 20
15.542
 42
1.0
 10
21.7162
 20
15.6056
  0
LWPOLYLINE
  5
19CA
330
36
100
AcDbEntity
  8
21
100
AcDbPolyline
 90
        2
 70
     0
 43
0.0635
 10
17.6845
 20
11.5738
 42
1.0
 10
17.7479
 20
11.5738
  0
LWPOLYLINE
  5
19CE
330
36
100
AcDbEntity
  8
21
100
AcDbPolyline
 90
        2
 70
     0
 43
0.127
 10
57.7162
 20
11.5738
 42
0.4142000000000001
 10
53.7162
 20
15.5738
  0
LWPOLYLINE
  5
19D2
330
36
100
AcDbEntity
  8
21
100
AcDbPolyline
 90
        2
 70
     0
 43
0.0635
 10
57.6844
 20
11.5738
 42
1.0
 10
57.74799999999999
 20
11.5738
  0
LWPOLYLINE
  5
19D6
330
36
100
AcDbEntity
  8
21
100
AcDbPolyline
 90
        2
 70
     0
 43
0.0635
 10
53.7162
 20
15.6056
 42
1.0
 10
53.7162
 20
15.542
  0
LWPOLYLINE
  5
1FEA
330
36
100
AcDbEntity
  8
21
100
AcDbPolyline
 90
        2
 70
     0
 43
0.1524
 10
26.0731
 20
60.2361
 10
25.2857
 20
65.5193
  0
LWPOLYLINE
  5
1FEE
330
36
100
AcDbEntity
  8
21
100
AcDbPolyline
 90
        2
 70
     0
 43
0.0762
 10
25.3234
 20
65.5249
 42
1.0
 10
25.248
 20
65.5137
  0
LWPOLYLINE
  5
1FF2
330
36
100
AcDbEntity
  8
21
100
AcDbPolyline
 90
        2
 70
     0
 43
0.0762
 10
26.0354
 20
60.2305
 42
1.0
 10
26.1108
 20
60.2417
  0
LWPOLYLINE
  5
1FF6
330
36
100
AcDbEntity
  8
21
100
AcDbPolyline
 90
        2
 70
     0
 43
0.1524
 10
48.1965
 20
59.24549999999999
 42
0.3467
 10
49.5052
 20
60.27750000000001
  0
LWPOLYLINE
  5
1FFA
330
36
100
AcDbEntity
  8
21
100
AcDbPolyline
 90
        2
 70
     0
 43
0.0762
 10
48.1965
 20
59.2836
 42
1.0
 10
48.1965
 20
59.2074
  0
LWPOLYLINE
  5
1FFE
330
36
100
AcDbEntity
  8
21
100
AcDbPolyline
 90
        2
 70
     0
 43
0.0762
 10
49.5422
 20
60.2686
 42
1.0
 10
49.4682
 20
60.2864
  0
LWPOLYLINE
  5
2002
330
36
100
AcDbEntity
  8
21
100
AcDbPolyline
 90
        2
 70
     0
 43
0.1524
 10
50.274
 20
65.4863
 42
0.4786000000000001
 10
48.9585
 20
67.1195
  0
LWPOLYLINE
  5
2006
330
36
100
AcDbEntity
  8
21
100
AcDbPolyline
 90
        2
 70
     0
 43
0.0762
 10
50.2368
 20
65.4944
 42
1.0
 10
50.3112
 20
65.4782
  0
LWPOLYLINE
  5
200A
330
36
100
AcDbEntity
  8
21
100
AcDbPolyline
 90
        2
 70
     0
 43
0.0762
 10
48.9585
 20
67.1576
 42
1.0
 10
48.9585
 20
67.0814
  0
LWPOLYLINE
  5
200E
330
36
100
AcDbEntity
  8
21
100
AcDbPolyline
 90
        2
 70
     0
 43
0.1524
 10
50.2793
 20
65.49389999999999
 10
49.4919
 20
60.2615
  0
LWPOLYLINE
  5
2012
330
36
100
AcDbEntity
  8
21
100
AcDbPolyline
 90
        2
 70
     0
 43
0.0762
 10
49.4542
 20
60.2672
 42
1.0
 10
49.5296
 20
60.2558
  0
LWPOLYLINE
  5
2016
330
36
100
AcDbEntity
  8
21
100
AcDbPolyline
 90
        2
 70
     0
 43
0.0762
 10
50.317
 20
65.4882
 42
1.0
 10
50.2416
 20
65.4996
  0
LWPOLYLINE
  5
201A
330
36
100
AcDbEntity
  8
21
100
AcDbPolyline
 90
        2
 70
     0
 43
0.1524
 10
26.6065
 20
67.1195
 10
48.9585
 20
67.1195
  0
LWPOLYLINE
  5
201E
330
36
100
AcDbEntity
  8
21
100
AcDbPolyline
 90
        2
 70
     0
 43
0.0762
 10
48.9585
 20
67.0814
 42
1.0
 10
48.9585
 20
67.1576
  0
LWPOLYLINE
  5
2022
330
36
100
AcDbEntity
  8
21
100
AcDbPolyline
 90
        2
 70
     0
 43
0.0762
 10
26.6065
 20
67.1576
 42
1.0
 10
26.6065
 20
67.0814
  0
LWPOLYLINE
  5
2026
330
36
100
AcDbEntity
  8
21
100
AcDbPolyline
 90
        2
 70
     0
 43
0.1524
 10
26.6065
 20
67.1195
 42
0.4733
 10
25.2864
 20
65.5093
  0
LWPOLYLINE
  5
202A
330
36
100
AcDbEntity
  8
21
100
AcDbPolyline
 90
        2
 70
     0
 43
0.0762
 10
26.6065
 20
67.0814
 42
1.0
 10
26.6065
 20
67.1576
  0
LWPOLYLINE
  5
202E
330
36
100
AcDbEntity
  8
21
100
AcDbPolyline
 90
        2
 70
     0
 43
0.0762
 10
25.249
 20
65.50180000000001
 42
1.0
 10
25.3238
 20
65.51680000000001
  0
LWPOLYLINE
  5
2032
330
36
100
AcDbEntity
  8
21
100
AcDbPolyline
 90
        2
 70
     0
 43
0.1524
 10
26.0656
 20
60.253
 42
0.3415
 10
27.3685
 20
59.24549999999999
  0
LWPOLYLINE
  5
2036
330
36
100
AcDbEntity
  8
21
100
AcDbPolyline
 90
        2
 70
     0
 43
0.0762
 10
26.1025
 20
60.2626
 42
1.0
 10
26.0287
 20
60.2434
  0
LWPOLYLINE
  5
203A
330
36
100
AcDbEntity
  8
21
100
AcDbPolyline
 90
        2
 70
     0
 43
0.0762
 10
27.3685
 20
59.2074
 42
1.0
 10
27.3685
 20
59.2836
  0
LWPOLYLINE
  5
203E
330
36
100
AcDbEntity
  8
21
100
AcDbPolyline
 90
        2
 70
     0
 43
0.1524
 10
27.3685
 20
59.24549999999999
 10
48.1965
 20
59.24549999999999
  0
LWPOLYLINE
  5
2042
330
36
100
AcDbEntity
  8
21
100
AcDbPolyline
 90
        2
 70
     0
 43
0.0762
 10
48.1965
 20
59.2074
 42
1.0
 10
48.1965
 20
59.2836
  0
LWPOLYLINE
  5
2046
330
36
100
AcDbEntity
  8
21
100
AcDbPolyline
 90
        2
 70
     0
 43
0.0762
 10
27.3685
 20
59.2836
 42
1.0
 10
27.3685
 20
59.2074
  0
LINE
  5
377B
330
36
100
AcDbEntity
  8
Spigoli visibili(ISO)
100
AcDbLine
 10
73.77959999998657
 20
68.21529999999987
 30
0.0
 11
73.77959999998657
 21
8.615299999999905
 31
0.0
  0
LINE
  5
377C
330
36
100
AcDbEntity
  8
Spigoli visibili(ISO)
100
AcDbLine
 10
73.77959999998657
 20
8.615299999999905
 30
0.0
 11
1.479599999986618
 21
8.615299999999905
 31
0.0
  0
LINE
  5
377D
330
36
100
AcDbEntity
  8
Spigoli visibili(ISO)
100
AcDbLine
 10
1.479599999986618
 20
8.615299999999905
 30
0.0
 11
1.479599999986447
 21
68.21529999999987
 31
0.0
  0
LINE
  5
377E
330
36
100
AcDbEntity
  8
Spigoli visibili(ISO)
100
AcDbLine
 10
1.479599999986447
 20
68.21529999999987
 30
0.0
 11
73.77959999998657
 21
68.21529999999987
 31
0.0
  0
LWPOLYLINE
  5
37DB
330
36
100
AcDbEntity
  8
21
100
AcDbPolyline
 90
        2
 70
     0
 43
0.127
 10
17.71620010399167
 20
7.637300100395622
 10
57.71620010399167
 20
7.637300100395622
  0
CIRCLE
  5
37DC
330
36
100
AcDbEntity
  8
0
  6
Continuous
100
AcDbCircle
 10
5.051748124690732
 20
54.13285277300531
 30
0.0
 40
1.5
  0
CIRCLE
  5
37DD
330
36
100
AcDbEntity
  8
0
  6
Continuous
100
AcDbCircle
 10
68.57971244411449
 20
30.47993248369329
 30
0.0
 40
1.5
  0
LINE
  5
37E2
330
36
100
AcDbEntity
  8
0
  6
Continuous
100
AcDbLine
 10
-4.970400000013381
 20
2.165299999999905
 30
0.0
 11
80.2295999999866
 21
2.165299999999902
 31
0.0
  0
LINE
  5
37E5
330
36
100
AcDbEntity
  8
0
  6
Continuous
100
AcDbLine
 10
80.22959999998658
 20
74.66529999999997
 30
0.0
 11
-4.970400000013381
 21
74.66529999999988
 31
0.0
  0
LINE
  5
37E6
330
36
100
AcDbEntity
  8
0
  6
Continuous
100
AcDbLine
 10
-4.97040000001338
 20
2.165299999999905
 30
0.0
 11
-4.970400000013381
 21
74.66529999999988
 31
0.0
  0
LINE
  5
37E7
330
36
100
AcDbEntity
  8
0
  6
Continuous
100
AcDbLine
 10
80.22959999998658
 20
74.66529999999997
 30
0.0
 11
80.2295999999866
 21
2.165299999999902
 31
0.0
  0
ENDSEC
  0
SECTION
  2
OBJECTS
  0
DICTIONARY
  5
C
330
0
100
AcDbDictionary
281
     1
  3
ACAD_COLOR
350
2F
  3
ACAD_GROUP
350
D
  3
ACAD_LAYOUT
350
2E
  3
ACAD_MATERIAL
350
10
  3
ACAD_MLINESTYLE
350
2B
  3
ACAD_PLOTSETTINGS
350
2D
  3
ACAD_PLOTSTYLENAME
350
E
  3
ACAD_TABLESTYLE
350
30
  3
ACAD_VISUALSTYLE
350
14
  3
AcDbVariableDictionary
350
37C9
  3
DWGPROPS
350
37EB
  0
DICTIONARY
  5
2F
102
{ACAD_REACTORS
330
C
102
}
330
C
100
AcDbDictionary
281
     1
  0
DICTIONARY
  5
D
102
{ACAD_REACTORS
330
C
102
}
330
C
100
AcDbDictionary
281
     1
  0
DICTIONARY
  5
2E
102
{ACAD_REACTORS
330
C
102
}
330
C
100
AcDbDictionary
281
     1
  3
Layout1
350
35
  3
Model
350
39
  0
DICTIONARY
  5
10
102
{ACAD_REACTORS
330
C
102
}
330
C
100
AcDbDictionary
281
     1
  3
ByBlock
350
12
  3
ByLayer
350
11
  3
Global
350
13
  0
DICTIONARY
  5
2B
102
{ACAD_REACTORS
330
C
102
}
330
C
100
AcDbDictionary
281
     1
  3
Standard
350
2C
  0
DICTIONARY
  5
2D
102
{ACAD_REACTORS
330
C
102
}
330
C
100
AcDbDictionary
281
     1
  0
ACDBDICTIONARYWDFLT
  5
E
102
{ACAD_REACTORS
330
C
102
}
330
C
100
AcDbDictionary
281
     1
  3
Normal
350
F
100
AcDbDictionaryWithDefault
340
F
  0
DICTIONARY
  5
30
102
{ACAD_REACTORS
330
C
102
}
330
C
100
AcDbDictionary
281
     1
  3
Standard
350
31
  0
DICTIONARY
  5
14
102
{ACAD_REACTORS
330
C
102
}
330
C
100
AcDbDictionary
281
     1
  3
2dWireframe
350
1A
  3
3D Hidden
350
1C
  3
3dWireframe
350
1B
  3
Basic
350
19
  3
Brighten
350
20
  3
ColorChange
350
24
  3
Conceptual
350
1D
  3
Dim
350
1F
  3
Facepattern
350
23
  3
Flat
350
15
  3
FlatWithEdges
350
16
  3
Gouraud
350
17
  3
GouraudWithEdges
350
18
  3
Linepattern
350
22
  3
Realistic
350
1E
  3
Thicken
350
21
  0
DICTIONARY
  5
37C9
102
{ACAD_REACTORS
330
C
102
}
330
C
100
AcDbDictionary
281
     1
  3
CTABLESTYLE
350
37CA
  3
DIMASSOC
350
37EA
  3
INDEXCTL
350
37E9
  3
SORTENTS
350
37E8
  0
XRECORD
  5
37EB
102
{ACAD_REACTORS
330
C
102
}
330
C
100
AcDbXrecord
280
     1
  1
DWGPROPS COOKIE
  2

  3

  4

  6

  7

  8
Buddace
  9

300
=
301
=
302
=
303
=
304
=
305
=
306
=
307
=
308
=
309
=
 40
0.032311712962963
 41
2458931.050542905
 42
2458931.415051991
  1

 90
        0
  0
LAYOUT
  5
35
102
{ACAD_XDICTIONARY
360
37F4
102
}
102
{ACAD_REACTORS
330
2E
102
}
330
2E
100
AcDbPlotSettings
  1

  2
Dell Laser MFP 1815
  4

  6

 40
0.0
 41
0.0
 42
0.0
 43
0.0
 44
0.0
 45
0.0
 46
0.0
 47
0.0
 48
0.0
 49
0.0
140
0.0
141
0.0
142
1.0
143
1.0
 70
   688
 72
     0
 73
     0
 74
     5
  7

 75
    16
147
1.0
148
0.0
149
0.0
100
AcDbLayout
  1
Layout1
 70
     1
 71
     1
 10
0.0
 20
0.0
 11
12.0
 21
9.0
 12
0.0
 22
0.0
 32
0.0
 14
1.000000000000000E+20
 24
1.000000000000000E+20
 34
1.000000000000000E+20
 15
-1.000000000000000E+20
 25
-1.000000000000000E+20
 35
-1.000000000000000E+20
146
0.0
 13
0.0
 23
0.0
 33
0.0
 16
1.0
 26
0.0
 36
0.0
 17
0.0
 27
1.0
 37
0.0
 76
     0
330
32
  0
LAYOUT
  5
39
102
{ACAD_XDICTIONARY
360
37F6
102
}
102
{ACAD_REACTORS
330
2E
102
}
330
2E
100
AcDbPlotSettings
  1

  2
Dell Laser MFP 1815
  4

  6

 40
0.0
 41
0.0
 42
0.0
 43
0.0
 44
0.0
 45
0.0
 46
0.0
 47
0.0
 48
0.0
 49
0.0
140
0.0
141
0.0
142
1.0
143
1.0
 70
  1712
 72
     0
 73
     0
 74
     0
  7

 75
     0
147
1.0
148
0.0
149
0.0
100
AcDbLayout
  1
Model
 70
     1
 71
     0
 10
0.0
 20
0.0
 11
12.0
 21
9.0
 12
0.0
 22
0.0
 32
0.0
 14
0.0
 24
0.0
 34
0.0
 15
0.0
 25
0.0
 35
0.0
146
0.0
 13
0.0
 23
0.0
 33
0.0
 16
1.0
 26
0.0
 36
0.0
 17
0.0
 27
1.0
 37
0.0
 76
     0
330
36
331
3D
  0
MATERIAL
  5
12
102
{ACAD_XDICTIONARY
360
37EE
102
}
102
{ACAD_REACTORS
330
10
102
}
330
10
100
AcDbMaterial
  1
ByBlock
  0
MATERIAL
  5
11
102
{ACAD_XDICTIONARY
360
37EC
102
}
102
{ACAD_REACTORS
330
10
102
}
330
10
100
AcDbMaterial
  1
ByLayer
  0
MATERIAL
  5
13
102
{ACAD_XDICTIONARY
360
37F0
102
}
102
{ACAD_REACTORS
330
10
102
}
330
10
100
AcDbMaterial
  1
Global
  0
MLINESTYLE
  5
2C
102
{ACAD_REACTORS
330
2B
102
}
330
2B
100
AcDbMlineStyle
  2
STANDARD
 70
     0
  3

 62
   256
 51
90.0
 52
90.0
 71
     2
 49
0.5
 62
   256
  6
BYLAYER
 49
-0.5
 62
   256
  6
BYLAYER
  0
ACDBPLACEHOLDER
  5
F
102
{ACAD_REACTORS
330
E
102
}
330
E
  0
TABLESTYLE
  5
31
102
{ACAD_XDICTIONARY
360
37F2
102
}
102
{ACAD_REACTORS
330
30
102
}
330
30
100
AcDbTableStyle
  3
Standard
 70
     0
 71
     0
 40
0.06
 41
0.06
280
     0
281
     0
  7
Standard
140
0.18
170
     2
 62
     0
 63
     7
283
     0
274
    -2
284
     1
 64
     0
275
    -2
285
     1
 65
     0
276
    -2
286
     1
 66
     0
277
    -2
287
     1
 67
     0
278
    -2
288
     1
 68
     0
279
    -2
289
     1
 69
     0
  7
Standard
140
0.25
170
     5
 62
     0
 63
     7
283
     0
274
    -2
284
     1
 64
     0
275
    -2
285
     1
 65
     0
276
    -2
286
     1
 66
     0
277
    -2
287
     1
 67
     0
278
    -2
288
     1
 68
     0
279
    -2
289
     1
 69
     0
  7
Standard
140
0.18
170
     5
 62
     0
 63
     7
283
     0
274
    -2
284
     1
 64
     0
275
    -2
285
     1
 65
     0
276
    -2
286
     1
 66
     0
277
    -2
287
     1
 67
     0
278
    -2
288
     1
 68
     0
279
    -2
289
     1
 69
     0
  0
VISUALSTYLE
  5
1A
102
{ACAD_REACTORS
330
14
102
}
330
14
100
AcDbVisualStyle
  2
2dWireframe
 70
     4
 71
     0
 72
     2
 73
     0
 90
        0
 40
-0.6
 41
-30.0
 62
     5
 63
     7
 74
     1
 91
        4
 64
     7
 65
   257
 75
     1
175
     1
 42
1.0
 92
        0
 66
   257
 43
1.0
 76
     1
 77
     6
 78
     2
 67
     7
 79
     5
170
     0
171
     0
290
     0
174
     0
 93
        1
 44
0.0
173
     0
291
     0
 45
0.0
1001
ACAD
1000
AcDbSavedByObjectVersion
1070
     0
  0
VISUALSTYLE
  5
1C
102
{ACAD_REACTORS
330
14
102
}
330
14
100
AcDbVisualStyle
  2
3D Hidden
 70
     6
 71
     1
 72
     2
 73
     2
 90
        0
 40
-0.6
 41
-30.0
 62
     5
 63
     7
 74
     2
 91
        2
 64
     7
 65
   257
 75
     2
175
     1
 42
40.0
 92
        0
 66
   257
 43
1.0
 76
     1
 77
     6
 78
     2
 67
     7
 79
     3
170
     0
171
     0
290
     0
174
     0
 93
        1
 44
0.0
173
     0
291
     0
 45
0.0
1001
ACAD
1000
AcDbSavedByObjectVersion
1070
     0
  0
VISUALSTYLE
  5
1B
102
{ACAD_REACTORS
330
14
102
}
330
14
100
AcDbVisualStyle
  2
3dWireframe
 70
     5
 71
     0
 72
     2
 73
     0
 90
        0
 40
-0.6
 41
-30.0
 62
     5
 63
     7
 74
     1
 91
        4
 64
     7
 65
   257
 75
     1
175
     1
 42
1.0
 92
        0
 66
   257
 43
1.0
 76
     1
 77
     6
 78
     2
 67
     7
 79
     5
170
     0
171
     0
290
     0
174
     0
 93
        1
 44
0.0
173
     0
291
     0
 45
0.0
1001
ACAD
1000
AcDbSavedByObjectVersion
1070
     0
  0
VISUALSTYLE
  5
19
102
{ACAD_REACTORS
330
14
102
}
330
14
100
AcDbVisualStyle
  2
Basic
 70
     7
 71
     1
 72
     0
 73
     1
 90
        0
 40
-0.6
 41
-30.0
 62
     5
 63
     7
 74
     0
 91
        4
 64
     7
 65
   257
 75
     1
175
     1
 42
1.0
 92
        8
 66
     7
 43
1.0
 76
     1
 77
     6
 78
     2
 67
     7
 79
     5
170
     0
171
     0
290
     0
174
     0
 93
        1
 44
0.0
173
     0
291
     1
 45
0.0
1001
ACAD
1000
AcDbSavedByObjectVersion
1070
     0
  0
VISUALSTYLE
  5
20
102
{ACAD_REACTORS
330
14
102
}
330
14
100
AcDbVisualStyle
  2
Brighten
 70
    12
 71
     2
 72
     2
 73
     0
 90
        0
 40
-0.6
 41
-30.0
 62
     5
 63
     7
 74
     1
 91
        4
 64
     7
 65
   257
 75
     1
175
     1
 42
1.0
 92
        8
 66
     7
 43
1.0
 76
     1
 77
     6
 78
     2
 67
     7
 79
     5
170
     0
171
     0
290
     0
174
     0
 93
        1
 44
50.0
173
     0
291
     1
 45
0.0
1001
ACAD
1000
AcDbSavedByObjectVersion
1070
     0
  0
VISUALSTYLE
  5
24
102
{ACAD_REACTORS
330
14
102
}
330
14
100
AcDbVisualStyle
  2
ColorChange
 70
    16
 71
     2
 72
     2
 73
     3
 90
        0
 40
-0.6
 41
-30.0
 62
     5
 63
     8
 74
     1
 91
        4
 64
     7
 65
   257
 75
     1
175
     1
 42
1.0
 92
        8
 66
     8
 43
1.0
 76
     1
 77
     6
 78
     2
 67
     7
 79
     5
170
     0
171
     0
290
     0
174
     0
 93
        1
 44
0.0
173
     0
291
     1
 45
0.0
1001
ACAD
1000
AcDbSavedByObjectVersion
1070
     0
  0
VISUALSTYLE
  5
1D
102
{ACAD_REACTORS
330
14
102
}
330
14
100
AcDbVisualStyle
  2
Conceptual
 70
     9
 71
     3
 72
     2
 73
     0
 90
        0
 40
-0.6
 41
-30.0
 62
     5
 63
     7
 74
     2
 91
        2
 64
     7
 65
   257
 75
     1
175
     1
 42
40.0
 92
        8
 66
     7
 43
1.0
 76
     1
 77
     6
 78
     2
 67
     7
 79
     3
170
     0
171
     0
290
     0
174
     0
 93
        1
 44
0.0
173
     0
291
     0
 45
0.0
1001
ACAD
1000
AcDbSavedByObjectVersion
1070
     0
  0
VISUALSTYLE
  5
1F
102
{ACAD_REACTORS
330
14
102
}
330
14
100
AcDbVisualStyle
  2
Dim
 70
    11
 71
     2
 72
     2
 73
     0
 90
        0
 40
-0.6
 41
-30.0
 62
     5
 63
     7
 74
     1
 91
        4
 64
     7
 65
   257
 75
     1
175
     1
 42
1.0
 92
        8
 66
     7
 43
1.0
 76
     1
 77
     6
 78
     2
 67
     7
 79
     5
170
     0
171
     0
290
     0
174
     0
 93
        1
 44
-50.0
173
     0
291
     1
 45
0.0
1001
ACAD
1000
AcDbSavedByObjectVersion
1070
     0
  0
VISUALSTYLE
  5
23
102
{ACAD_REACTORS
330
14
102
}
330
14
100
AcDbVisualStyle
  2
Facepattern
 70
    15
 71
     2
 72
     2
 73
     0
 90
        0
 40
-0.6
 41
-30.0
 62
     5
 63
     7
 74
     1
 91
        4
 64
     7
 65
   257
 75
     1
175
     1
 42
1.0
 92
        8
 66
     7
 43
1.0
 76
     1
 77
     6
 78
     2
 67
     7
 79
     5
170
     0
171
     0
290
     0
174
     0
 93
        1
 44
0.0
173
     0
291
     1
 45
0.0
1001
ACAD
1000
AcDbSavedByObjectVersion
1070
     0
  0
VISUALSTYLE
  5
15
102
{ACAD_REACTORS
330
14
102
}
330
14
100
AcDbVisualStyle
  2
Flat
 70
     0
 71
     2
 72
     1
 73
     1
 90
        2
 40
-0.6
 41
30.0
 62
     5
 63
     7
 74
     0
 91
        4
 64
     7
 65
   257
 75
     1
175
     1
 42
1.0
 92
        8
 66
     7
 43
1.0
 76
     1
 77
     6
 78
     2
 67
     7
 79
     5
170
     0
171
     0
290
     0
174
     0
 93
       13
 44
0.0
173
     0
291
     1
 45
0.0
1001
ACAD
1000
AcDbSavedByObjectVersion
1070
     0
  0
VISUALSTYLE
  5
16
102
{ACAD_REACTORS
330
14
102
}
330
14
100
AcDbVisualStyle
  2
FlatWithEdges
 70
     1
 71
     2
 72
     1
 73
     1
 90
        2
 40
-0.6
 41
30.0
 62
     5
 63
     7
 74
     1
 91
        4
 64
     7
 65
   257
 75
     1
175
     1
 42
1.0
 92
        0
 66
   257
 43
1.0
 76
     1
 77
     6
 78
     2
 67
     7
 79
     5
170
     0
171
     0
290
     0
174
     0
 93
       13
 44
0.0
173
     0
291
     1
 45
0.0
1001
ACAD
1000
AcDbSavedByObjectVersion
1070
     0
  0
VISUALSTYLE
  5
17
102
{ACAD_REACTORS
330
14
102
}
330
14
100
AcDbVisualStyle
  2
Gouraud
 70
     2
 71
     2
 72
     2
 73
     1
 90
        2
 40
-0.6
 41
30.0
 62
     5
 63
     7
 74
     0
 91
        4
 64
     7
 65
   257
 75
     1
175
     1
 42
1.0
 92
        0
 66
     7
 43
1.0
 76
     1
 77
     6
 78
     2
 67
     7
 79
     5
170
     0
171
     0
290
     0
174
     0
 93
       13
 44
0.0
173
     0
291
     1
 45
0.0
1001
ACAD
1000
AcDbSavedByObjectVersion
1070
     0
  0
VISUALSTYLE
  5
18
102
{ACAD_REACTORS
330
14
102
}
330
14
100
AcDbVisualStyle
  2
GouraudWithEdges
 70
     3
 71
     2
 72
     2
 73
     1
 90
        2
 40
-0.6
 41
30.0
 62
     5
 63
     7
 74
     1
 91
        4
 64
     7
 65
   257
 75
     1
175
     1
 42
1.0
 92
        0
 66
   257
 43
1.0
 76
     1
 77
     6
 78
     2
 67
     7
 79
     5
170
     0
171
     0
290
     0
174
     0
 93
       13
 44
0.0
173
     0
291
     1
 45
0.0
1001
ACAD
1000
AcDbSavedByObjectVersion
1070
     0
  0
VISUALSTYLE
  5
22
102
{ACAD_REACTORS
330
14
102
}
330
14
100
AcDbVisualStyle
  2
Linepattern
 70
    14
 71
     2
 72
     2
 73
     0
 90
        0
 40
-0.6
 41
-30.0
 62
     5
 63
     7
 74
     1
 91
        4
 64
     7
 65
   257
 75
     7
175
     7
 42
1.0
 92
        8
 66
     7
 43
1.0
 76
     1
 77
     6
 78
     2
 67
     7
 79
     5
170
     0
171
     0
290
     0
174
     0
 93
        1
 44
0.0
173
     0
291
     1
 45
0.0
1001
ACAD
1000
AcDbSavedByObjectVersion
1070
     0
  0
VISUALSTYLE
  5
1E
102
{ACAD_REACTORS
330
14
102
}
330
14
100
AcDbVisualStyle
  2
Realistic
 70
     8
 71
     2
 72
     2
 73
     0
 90
        0
 40
-0.6
 41
-30.0
 62
     5
 63
     7
 74
     1
 91
        0
 64
     7
 65
   257
 75
     1
175
     1
 42
1.0
 92
        8
 66
     8
 43
1.0
 76
     1
 77
     6
 78
     2
 67
     7
 79
     5
170
     0
171
     0
290
     0
174
     0
 93
       13
 44
0.0
173
     0
291
     0
 45
0.0
1001
ACAD
1000
AcDbSavedByObjectVersion
1070
     0
  0
VISUALSTYLE
  5
21
102
{ACAD_REACTORS
330
14
102
}
330
14
100
AcDbVisualStyle
  2
Thicken
 70
    13
 71
     2
 72
     2
 73
     0
 90
        0
 40
-0.6
 41
-30.0
 62
     5
 63
     7
 74
     1
 91
        4
 64
     7
 65
   257
 75
     1
175
     1
 42
1.0
 92
       12
 66
     7
 43
1.0
 76
     1
 77
     6
 78
     2
 67
     7
 79
     5
170
     0
171
     0
290
     0
174
     0
 93
        1
 44
0.0
173
     0
291
     1
 45
0.0
1001
ACAD
1000
AcDbSavedByObjectVersion
1070
     0
  0
DICTIONARYVAR
  5
37CA
102
{ACAD_REACTORS
330
37C9
102
}
330
37C9
100
DictionaryVariables
280
     0
  1
STANDARD
  0
DICTIONARYVAR
  5
37EA
102
{ACAD_REACTORS
330
37C9
102
}
330
37C9
100
DictionaryVariables
280
     0
  1
1
  0
DICTIONARYVAR
  5
37E9
102
{ACAD_REACTORS
330
37C9
102
}
330
37C9
100
DictionaryVariables
280
     0
  1
0
  0
DICTIONARYVAR
  5
37E8
102
{ACAD_REACTORS
330
37C9
102
}
330
37C9
100
DictionaryVariables
280
     0
  1
127
  0
DICTIONARY
  5
37F4
330
35
100
AcDbDictionary
280
     1
281
     1
  3
ACAD_XREC_ROUNDTRIP
360
37F5
  0
DICTIONARY
  5
37F6
330
39
100
AcDbDictionary
280
     1
281
     1
  3
ACAD_XREC_ROUNDTRIP
360
37F7
  0
DICTIONARY
  5
37EE
330
12
100
AcDbDictionary
280
     1
281
     1
  3
ACAD_XREC_ROUNDTRIP
360
37EF
  0
DICTIONARY
  5
37EC
330
11
100
AcDbDictionary
280
     1
281
     1
  3
ACAD_XREC_ROUNDTRIP
360
37ED
  0
DICTIONARY
  5
37F0
330
13
100
AcDbDictionary
280
     1
281
     1
  3
ACAD_XREC_ROUNDTRIP
360
37F1
  0
DICTIONARY
  5
37F2
330
31
100
AcDbDictionary
280
     1
281
     1
  3
ACAD_XREC_ROUNDTRIP
360
37F3
  0
XRECORD
  5
37F5
102
{ACAD_REACTORS
330
37F4
102
}
330
37F4
100
AcDbXrecord
280
     1
102
SHADEPLOT
 70
     0
102
SHADEPLOTRESLEVEL
 70
     2
102
SHADEPLOTCUSTOMDPI
 70
   300
  0
XRECORD
  5
37F7
102
{ACAD_REACTORS
330
37F6
102
}
330
37F6
100
AcDbXrecord
280
     1
102
SHADEPLOT
 70
     0
102
SHADEPLOTRESLEVEL
 70
     2
102
SHADEPLOTCUSTOMDPI
 70
   300
  0
XRECORD
  5
37EF
102
{ACAD_REACTORS
330
37EE
102
}
330
37EE
100
AcDbXrecord
280
     1
102
MATERIAL
148
0.0
149
0.0
149
0.0
 93
        0
 94
       63
282
     0
 72
     1
 77
     1
171
     1
175
     1
179
     1
273
     0
  0
XRECORD
  5
37ED
102
{ACAD_REACTORS
330
37EC
102
}
330
37EC
100
AcDbXrecord
280
     1
102
MATERIAL
148
0.0
149
0.0
149
0.0
 93
        0
 94
       63
282
     0
 72
     1
 77
     1
171
     1
175
     1
179
     1
273
     0
  0
XRECORD
  5
37F1
102
{ACAD_REACTORS
330
37F0
102
}
330
37F0
100
AcDbXrecord
280
     1
102
MATERIAL
148
0.0
149
0.0
149
0.0
 93
        0
 94
       63
282
     0
 72
     1
 77
     1
171
     1
175
     1
179
     1
273
     0
  0
XRECORD
  5
37F3
102
{ACAD_REACTORS
330
37F2
102
}
330
37F2
100
AcDbXrecord
280
     1
102
ACAD_ROUNDTRIP_PRE2007_TABLESTYLE
 90
      512
 91
        0
  1

 92
      512
 93
        0
  2

 94
      512
 95
        0
  3

  0
ENDSEC
  0
EOF
